<?xml version="1.0" encoding="UTF-8"?>
<svg id="Layer_1" data-name="Layer 1" xmlns="http://www.w3.org/2000/svg" viewBox="0 0 500 350">
  <defs>
    <style>
      .cls-1 {
        fill: #231f20;
      }

      .cls-2 {
        stroke-width: 3.13px;
      }

      .cls-2, .cls-3 {
        fill: #b2564b;
      }

      .cls-2, .cls-3, .cls-4, .cls-5 {
        stroke: #231f20;
        stroke-linecap: round;
        stroke-linejoin: round;
      }

      .cls-3 {
        stroke-width: 2.29px;
      }

      .cls-4 {
        fill: #8f976f;
        stroke-width: 3.33px;
      }

      .cls-5 {
        fill: #fff09b;
        stroke-width: 2.68px;
      }
    </style>
  </defs>
  <rect class="cls-5" x="233.89" y="111.45" width="43.24" height="43.24"/>
  <rect class="cls-5" x="333.11" y="111.45" width="43.24" height="43.24"/>
  <path class="cls-1" d="M308.26,122.01v8.39h8.07v2.14h-8.07v8.47h-2.29v-8.47h-8.07v-2.14h8.07v-8.39h2.29Z"/>
  <path class="cls-1" d="M214.75,126.61l-5.9,5.97,5.74,5.67-1.51,1.53-5.74-5.67-5.95,6.02-1.63-1.61,5.95-6.02-5.75-5.67,1.51-1.53,5.75,5.67,5.9-5.97,1.63,1.61Z"/>
  <circle class="cls-4" cx="160.03" cy="131.15" r="23.54"/>
  <path class="cls-1" d="M307.72,37.59v8.39h8.07v2.14h-8.07v8.47h-2.29v-8.47h-8.07v-2.14h8.07v-8.39h2.29Z"/>
  <circle class="cls-4" cx="257.68" cy="47.17" r="23.54"/>
  <circle class="cls-4" cx="353.39" cy="47.17" r="23.54"/>
  <rect class="cls-5" x="138.41" y="195.52" width="43.24" height="43.24"/>
  <path class="cls-1" d="M114.26,210.59l-5.9,5.97,5.74,5.67-1.51,1.53-5.74-5.67-5.95,6.02-1.63-1.61,5.95-6.02-5.75-5.67,1.51-1.53,5.75,5.67,5.9-5.97,1.63,1.61Z"/>
  <circle class="cls-4" cx="59.54" cy="215.12" r="23.54"/>
  <path class="cls-1" d="M209.49,215.63v2.69h-10.22v-2.69h10.22Z"/>
  <polygon class="cls-2" points="224.51 237.08 252.88 193.65 281.24 237.08 224.51 237.08"/>
  <g>
    <path class="cls-1" d="M400.25,41.52v-2.14h18.43v2.14h-18.43ZM400.25,48.53v-2.14h18.43v2.14h-18.43Z"/>
    <path class="cls-1" d="M436.11,33.27h-.07l-4.04,2.18-.61-2.39,5.07-2.71h2.68v23.22h-3.04v-20.29Z"/>
    <path class="cls-1" d="M463.04,41.7c0,7.89-2.93,12.25-8.07,12.25-4.54,0-7.61-4.25-7.68-11.93,0-7.79,3.36-12.07,8.07-12.07s7.68,4.36,7.68,11.75ZM450.43,42.06c0,6.04,1.86,9.47,4.71,9.47,3.21,0,4.75-3.75,4.75-9.68s-1.46-9.47-4.71-9.47c-2.75,0-4.75,3.36-4.75,9.68Z"/>
  </g>
  <g>
    <path class="cls-1" d="M399.35,128.97v-2.14h18.43v2.14h-18.43ZM399.35,135.98v-2.14h18.43v2.14h-18.43Z"/>
    <path class="cls-1" d="M435.21,120.72h-.07l-4.04,2.18-.61-2.39,5.07-2.71h2.68v23.22h-3.04v-20.29Z"/>
    <path class="cls-1" d="M446.71,141.01v-1.93l2.46-2.39c5.93-5.64,8.61-8.64,8.64-12.15,0-2.36-1.14-4.54-4.61-4.54-2.11,0-3.86,1.07-4.93,1.96l-1-2.21c1.61-1.36,3.89-2.36,6.57-2.36,5,0,7.11,3.43,7.11,6.75,0,4.29-3.11,7.75-8,12.47l-1.86,1.71v.07h10.43v2.61h-14.82Z"/>
  </g>
  <g>
    <path class="cls-1" d="M401.68,216.12v-2.14h18.43v2.14h-18.43ZM401.68,223.12v-2.14h18.43v2.14h-18.43Z"/>
    <path class="cls-1" d="M444.57,207.58h-8.86l-.89,5.97c.54-.07,1.04-.14,1.89-.14,1.79,0,3.57.39,5,1.25,1.82,1.04,3.32,3.04,3.32,5.97,0,4.54-3.61,7.93-8.64,7.93-2.54,0-4.68-.71-5.79-1.43l.79-2.39c.96.57,2.86,1.29,4.96,1.29,2.96,0,5.5-1.93,5.5-5.04-.04-3-2.04-5.14-6.68-5.14-1.32,0-2.36.14-3.21.25l1.5-11.15h11.11v2.64Z"/>
  </g>
  <path class="cls-1" d="M311.24,209.88l-5.9,5.97,5.75,5.67-1.51,1.53-5.75-5.67-5.95,6.02-1.63-1.61,5.95-6.02-5.75-5.67,1.51-1.53,5.75,5.67,5.9-5.97,1.63,1.61Z"/>
  <circle class="cls-4" cx="353.63" cy="217.14" r="23.54"/>
  <polygon class="cls-3" points="196.06 314.43 216.86 282.58 237.66 314.43 196.06 314.43"/>
  <g>
    <path class="cls-1" d="M261.52,295.79v-2.28h19.58v2.28h-19.58ZM261.52,303.22v-2.28h19.58v2.28h-19.58Z"/>
    <path class="cls-1" d="M312.1,301.33l-.08-.99c-.23-2.05.46-4.29,2.35-6.57,1.71-2.01,2.66-3.49,2.66-5.2,0-1.94-1.21-3.23-3.61-3.26-1.37,0-2.88.46-3.83,1.18l-.91-2.39c1.25-.91,3.42-1.52,5.43-1.52,4.36,0,6.34,2.69,6.34,5.58,0,2.58-1.44,4.44-3.26,6.6-1.67,1.97-2.28,3.64-2.16,5.58l.04.99h-2.96ZM311.27,306.64c0-1.4.95-2.39,2.28-2.39s2.24.99,2.24,2.39c0,1.33-.87,2.35-2.28,2.35-1.33,0-2.24-1.02-2.24-2.35Z"/>
  </g>
</svg>