<?xml version="1.0" encoding="UTF-8"?>
<svg id="Layer_1" data-name="Layer 1" xmlns="http://www.w3.org/2000/svg" viewBox="0 0 500 70">
  <path d="M8.57,54.46c2.16,1.48,5.16,2.53,8.37,2.53,5.73,0,9.24-3.26,9.24-7.98,0-4.29-2.23-6.82-7.76-8.96-6.17-2.19-9.87-5.36-9.87-10.58,0-5.62,4.63-9.71,11.15-9.71,3.6,0,6.33.92,7.63,1.81l-1.05,2.27c-1.04-.73-3.48-1.82-6.77-1.82-6.18,0-8.29,3.97-8.29,6.98,0,4.25,2.46,6.43,7.95,8.57,6.33,2.56,9.68,5.43,9.68,11.17s-3.98,10.53-12.16,10.53c-3.31,0-7.17-1.08-9.16-2.57l1.02-2.26Z"/>
  <path d="M35.54,20.37h6.95v17.63h.16c.92-1.47,1.9-2.83,2.81-4.13l10.04-13.5h8.62l-13.21,16.3,14.07,22.03h-8.19l-10.85-17.55-3.44,4.1v13.45h-6.95V20.37Z"/>
  <path d="M77,47.86l-3.27,10.83h-7.24l12.3-38.33h8.92l12.45,38.33h-7.52l-3.47-10.83h-12.18ZM88.02,42.57l-3.02-9.44c-.74-2.38-1.37-4.98-1.95-7.21h-.13c-.56,2.25-1.14,4.9-1.82,7.18l-2.96,9.47h9.88Z"/>
  <path d="M106.11,20.37h2.7v36.06h17.09v2.27h-19.79V20.37Z"/>
  <path d="M162.59,58.7l-12.71-38.33h2.84l6.77,20.54c1.83,5.54,3.41,10.42,4.49,14.69h.14c1.14-4.32,2.91-9.31,4.89-14.67l7.48-20.56h2.87l-14.19,38.33h-2.59Z"/>
  <path d="M186.15,20.37v38.33h-2.7V20.37h2.7Z"/>
  <path d="M219.14,54.46c2.16,1.48,5.16,2.53,8.37,2.53,5.73,0,9.24-3.26,9.24-7.98,0-4.29-2.23-6.82-7.76-8.96-6.17-2.19-9.87-5.36-9.87-10.58,0-5.62,4.63-9.71,11.15-9.71,3.6,0,6.33.92,7.63,1.81l-1.05,2.27c-1.04-.73-3.48-1.82-6.77-1.82-6.18,0-8.29,3.97-8.29,6.98,0,4.25,2.46,6.43,7.95,8.57,6.33,2.56,9.68,5.43,9.68,11.17s-3.98,10.53-12.16,10.53c-3.31,0-7.17-1.08-9.16-2.57l1.02-2.26Z"/>
  <path d="M267.56,41.69h-14.44v11.24h16.15v5.76h-23.16V20.37h22.31v5.76h-15.31v9.85h14.44v5.71Z"/>
  <path d="M298.94,20.86c2.54-.44,6.01-.79,10.72-.79,5.11,0,8.84,1.07,11.29,3.14,2.29,1.87,3.75,4.88,3.75,8.49s-1.13,6.62-3.27,8.68c-2.82,2.79-7.15,4.12-12.12,4.12-1.31,0-2.48-.07-3.43-.27v14.47h-6.95V20.86ZM305.89,38.73c.89.23,2,.32,3.43.32,5.23,0,8.43-2.61,8.43-7.1,0-4.22-2.96-6.49-7.8-6.49-1.92,0-3.31.17-4.05.33v12.94Z"/>
  <path d="M335.93,45.29l-4.73,13.41h-2.77l13.86-38.33h2.63l13.8,38.33h-2.8l-4.82-13.41h-15.17ZM350.27,43.02l-4.66-12.81c-.94-2.66-1.45-4.58-2-6.75h-.14c-.54,2.23-1.15,4.22-1.99,6.64l-4.69,12.92h13.49ZM348.72,14.3c0,2.67-2.28,4.72-5.1,4.72-3,0-5.16-2.1-5.16-4.72s2.1-4.89,5.16-4.89,5.1,2.16,5.1,4.89ZM340.72,14.3c0,1.56,1.19,3.1,2.84,3.1s2.9-1.42,2.9-3.21-1.19-3.21-2.9-3.21-2.84,1.54-2.84,3.33Z"/>
  <path d="M388.9,58.7V20.37h8l9.9,16.45c2.52,4.23,4.76,8.68,6.52,12.85l.14-.04c-.5-5.09-.63-10.03-.63-15.88v-13.38h6.47v38.33h-7.26l-10-16.86c-2.45-4.21-4.99-8.88-6.87-13.22l-.18.04c.28,4.98.37,10.04.37,16.34v13.71h-6.47Z"/>
  <path d="M461.38,39.15c0,12.83-7.78,20.17-18.34,20.17s-17.68-8.27-17.68-19.5,7.44-20.09,18.25-20.09,17.78,8.45,17.78,19.41ZM432.75,39.69c0,7.82,3.95,14.04,10.64,14.04s10.59-6.29,10.59-14.31c0-7.23-3.59-14.06-10.57-14.06s-10.66,6.47-10.66,14.34Z"/>
  <path d="M488.83,41.69h-14.44v11.24h16.15v5.76h-23.16V20.37h22.31v5.76h-15.31v9.85h14.44v5.71Z"/>
</svg>