<?xml version="1.0" encoding="UTF-8"?>
<svg xmlns="http://www.w3.org/2000/svg" xmlns:xlink="http://www.w3.org/1999/xlink" version="1.1" viewBox="0 0 500 130">
  <!-- Generator: Adobe Illustrator 29.0.1, SVG Export Plug-In . SVG Version: 2.1.0 Build 192)  -->
  <defs>
    <style>
      .st0 {
        fill: url(#linear-gradient1);
      }

      .st0, .st1 {
        mix-blend-mode: screen;
        opacity: .7;
      }

      .st2 {
        fill: #362328;
      }

      .st3 {
        fill: #231f20;
      }

      .st4 {
        fill: #d0d0d0;
      }

      .st1 {
        fill: url(#linear-gradient);
      }

      .st5, .st6 {
        fill: #472b51;
      }

      .st7 {
        isolation: isolate;
      }

      .st8 {
        mix-blend-mode: multiply;
      }

      .st9 {
        fill: #e7e7e7;
      }

      .st10 {
        fill: #1d1d1d;
      }

      .st11 {
        fill: #b93432;
        stroke: #000;
        stroke-miterlimit: 10;
        stroke-width: .5px;
      }

      .st12 {
        fill: #fff;
      }

      .st6 {
        stroke: #362328;
        stroke-linecap: round;
        stroke-linejoin: round;
        stroke-width: 1px;
      }
    </style>
    <linearGradient id="linear-gradient" x1="115.9" y1="94.2" x2="118.2" y2="98.4" gradientUnits="userSpaceOnUse">
      <stop offset="0" stop-color="#fff"/>
      <stop offset="1" stop-color="#6f6f6f"/>
    </linearGradient>
    <linearGradient id="linear-gradient1" x1="118.8" y1="16.9" x2="118.8" y2="84.6" xlink:href="#linear-gradient"/>
  </defs>
  <g class="st7">
    <g id="Layer_1">
      <g>
        <path d="M19.7,104.4h-5.7l-.3-6.8c0-3.1,0-6.1-.1-9.2-.1-8.9,0-17.8.2-26.7,0-1.7,0-3.7.1-5.4s.6-.9,1.4-.9,2.1,0,3,0,1.3,0,1.4.5c.2,1.7.1,3.3.2,5,.5,12.9.4,25.8,0,38.7,0,1.7,0,3.3-.1,5Z"/>
        <path d="M14.9,44.8c-3.1-.4-4.1-4-4.3-7.1-.2-3.6.2-7.3,0-10.9l.6-12.2h1.3s.5,20.1.5,20.1c.5,1,1.4.7,1.5-.3.3-2.8-.1-6.2.2-9l.2-10.7h1c0,1.7,0,3.4,0,5.1,0,4.2.2,8.5.3,12.7,0,.6,0,1.4,0,2,.1,1.3,1.4,1.3,1.6,0,.3-2.8-.1-5.9.2-8.7l.2-11.1h.9s.4,19.8.4,19.8c.1,1.3,1.4,1.3,1.6,0,.2-2.2.2-5.1.2-7.4,0-4.1,0-8.3.2-12.4h1c.1,1.9.1,3.9.2,5.8.2,4.6.4,9.2.4,13.8,0,3.1,0,8.3-2.8,10s-1.2.4-1.6.8v9.7h-3.9v-9.9Z"/>
        <g>
          <path class="st3" d="M39.5,73.2v2.4h-8v-2.4h8Z"/>
          <path class="st3" d="M49.1,59.6h2.8v11.9h0c.6-1,1.2-1.8,1.7-2.6l6.7-9.3h3.5l-7.9,10.5,8.5,14.2h-3.3l-7.2-12.2-2.1,2.7v9.4h-2.8v-24.7Z"/>
        </g>
        <path class="st9" d="M133.3,108.2c0,4.7-3.3,8.4-7.4,8.4h-11.9c-4.1,0-7.4-3.8-7.4-8.4V12.2c0-4.7,3.3-8.4,7.4-8.4h11.9c4.1,0,7.4,3.8,7.4,8.4v96Z"/>
        <path class="st4" d="M125.9,3.6c4.2,0,7.6,3.9,7.6,8.6v96c0,4.7-3.4,8.6-7.6,8.6h-11.9c-4.2,0-7.6-3.9-7.6-8.6V12.2c0-4.7,3.4-8.6,7.6-8.6"/>
        <path d="M114,3.8c-4,0-7.3,3.7-7.3,8.3v96c0,4.6,3.3,8.3,7.3,8.3h11.9c4,0,7.3-3.7,7.3-8.3V12.2c0-4.6-3.3-8.3-7.3-8.3h-11.9Z"/>
        <path class="st12" d="M131.8,107.1c0,4.6-3,8.2-6.7,8.2h-10.6c-3.7,0-6.7-3.7-6.7-8.2V13.4c0-4.6,3-8.2,6.7-8.2h10.6c3.7,0,6.7,3.7,6.7,8.2v93.7Z"/>
        <g>
          <path class="st12" d="M125.7,92.7V16.2c0-3.6-2.6-6.5-5.7-6.5s-5.7,2.9-5.7,6.5v76.6c-2.7,2.1-4.4,5.5-4.4,9.5,0,6.3,4.5,11.5,10.1,11.5s10.1-5.1,10.1-11.5-1.7-7.4-4.4-9.5Z"/>
          <path class="st4" d="M120,113.8c-5.6,0-10.2-5.2-10.2-11.6s1.6-7.4,4.4-9.5V16.2c0-3.6,2.6-6.6,5.8-6.6s5.8,3,5.8,6.6v76.5c2.8,2.2,4.4,5.7,4.4,9.5,0,6.4-4.6,11.6-10.2,11.6ZM120,9.8c-3.1,0-5.6,2.8-5.6,6.3v76.6s0,0,0,.1c-2.7,2.1-4.3,5.6-4.3,9.3,0,6.2,4.5,11.3,10,11.3s10-5.1,10-11.3-1.6-7.2-4.3-9.3c0,0,0,0,0-.1V16.2c0-3.5-2.5-6.3-5.6-6.3Z"/>
        </g>
        <g>
          <path class="st9" d="M124.2,93.6V17.5c0-5.3-1.6-6.4-4.3-6.4s-4.3,1.3-4.3,6.1v76.5c-2.6,1.7-4.4,4.9-4.4,8.5,0,5.4,3.9,9.8,8.7,9.8s8.7-4.4,8.7-9.8-1.8-6.8-4.4-8.5Z"/>
          <path class="st12" d="M120,112.2c-4.8,0-8.8-4.5-8.8-10s1.7-6.8,4.4-8.6V17.2c0-4.2,1.4-6.2,4.4-6.2s4.4,1.1,4.4,6.5v76.1c2.7,1.8,4.4,5.1,4.4,8.6,0,5.5-3.9,10-8.8,10ZM120,11.3c-2.8,0-4.2,1.9-4.2,5.9v76.6h0c-2.7,1.8-4.3,5-4.3,8.5,0,5.3,3.8,9.7,8.5,9.7s8.5-4.3,8.5-9.7-1.7-6.7-4.3-8.4h0V17.5c0-5.2-1.5-6.2-4.2-6.2Z"/>
        </g>
        <path d="M123.8,94.3v-5.5s-7.8,0-7.8,0v5.5c-2.4,1.5-4,4.4-4,7.7,0,4.9,3.5,8.9,7.8,8.9s7.8-4,7.8-8.9-1.6-6.2-4-7.7Z"/>
        <path class="st1" d="M119.3,95.2s-3.7,0-4.8,5.1c0,0,0,1.6.7,1.4.7-.2.9-2.6,3.3-3.6,2.5-1,3.6-.8,3.4-2-.2-1-2.7-.9-2.7-.9Z"/>
        <path class="st8" d="M124.3,94.6V18.4c0-5.3-1.6-6.4-4.3-6.4s-4.3,1.3-4.3,6.1v76.5c-2.6,1.7-4.4,4.9-4.4,8.5,0,5.4,3.9,9.8,8.7,9.8s8.7-4.4,8.7-9.8-1.8-6.8-4.4-8.5ZM125.8,102.6c-.8,4.1-10.4,6.1-12-.3-1.1-4.5,3.5-6.5,3.5-6.5,0,0,0-75.7,0-78.6,0-2.8,1.6-3.3,1.6-3.3,0,0,.6-.7,2.1-.1,1.5.6,1.7,3.7,1.7,3.7v78.3c2.6,1.2,3.6,3.9,3,6.8Z"/>
        <path class="st0" d="M119.4,92.6c0,.7-.3,1.2-.6,1.2h0c-.3,0-.6-.5-.6-1.2V17.5c0-.7.3-1.2.6-1.2h0c.3,0,.6.5.6,1.2v75.1Z"/>
        <g>
          <g>
            <path class="st10" d="M124.5,91.5h1.5c.1,0,.2.1.2.3s0,.3-.2.3h-1.5c-.1,0-.2-.1-.2-.3s0-.3.2-.3Z"/>
            <path class="st10" d="M125.4,90.5h-1c0,0-.1,0-.1-.2s0-.2.1-.2h1c0,0,.1,0,.1.2s0,.2-.1.2Z"/>
            <path class="st10" d="M125.4,89h-1c0,0-.1,0-.1-.2s0-.2.1-.2h1c0,0,.1,0,.1.2s0,.2-.1.2Z"/>
            <path class="st10" d="M125.4,87.5h-1c0,0-.1,0-.1-.2s0-.2.1-.2h1c0,0,.1,0,.1.2s0,.2-.1.2Z"/>
            <path class="st10" d="M125.4,86h-1c0,0-.1,0-.1-.2s0-.2.1-.2h1c0,0,.1,0,.1.2s0,.2-.1.2Z"/>
            <path class="st10" d="M124.5,84.1h1.5c.1,0,.2.1.2.3s0,.3-.2.3h-1.5c-.1,0-.2-.1-.2-.3s0-.3.2-.3Z"/>
            <path class="st10" d="M125.4,83h-1c0,0-.1,0-.1-.2s0-.2.1-.2h1c0,0,.1,0,.1.2s0,.2-.1.2Z"/>
            <path class="st10" d="M125.4,81.6h-1c0,0-.1,0-.1-.2s0-.2.1-.2h1c0,0,.1,0,.1.2s0,.2-.1.2Z"/>
            <path class="st10" d="M125.4,80.1h-1c0,0-.1,0-.1-.2s0-.2.1-.2h1c0,0,.1,0,.1.2s0,.2-.1.2Z"/>
            <path class="st10" d="M125.4,78.6h-1c0,0-.1,0-.1-.2s0-.2.1-.2h1c0,0,.1,0,.1.2s0,.2-.1.2Z"/>
            <path class="st10" d="M124.5,76.6h1.5c.1,0,.2.1.2.3s0,.3-.2.3h-1.5c-.1,0-.2-.1-.2-.3s0-.3.2-.3Z"/>
            <path class="st10" d="M125.4,75.6h-1c0,0-.1,0-.1-.2s0-.2.1-.2h1c0,0,.1,0,.1.2s0,.2-.1.2Z"/>
            <path class="st10" d="M125.4,74.1h-1c0,0-.1,0-.1-.2s0-.2.1-.2h1c0,0,.1,0,.1.2s0,.2-.1.2Z"/>
            <path class="st10" d="M125.4,72.6h-1c0,0-.1,0-.1-.2s0-.2.1-.2h1c0,0,.1,0,.1.2s0,.2-.1.2Z"/>
            <path class="st10" d="M125.4,71.2h-1c0,0-.1,0-.1-.2s0-.2.1-.2h1c0,0,.1,0,.1.2s0,.2-.1.2Z"/>
            <path class="st10" d="M124.5,69.2h1.5c.1,0,.2.1.2.3s0,.3-.2.3h-1.5c-.1,0-.2-.1-.2-.3s0-.3.2-.3Z"/>
            <path class="st10" d="M125.4,68.2h-1c0,0-.1,0-.1-.2s0-.2.1-.2h1c0,0,.1,0,.1.2s0,.2-.1.2Z"/>
            <path class="st10" d="M125.4,66.7h-1c0,0-.1,0-.1-.2s0-.2.1-.2h1c0,0,.1,0,.1.2s0,.2-.1.2Z"/>
            <path class="st10" d="M125.4,65.2h-1c0,0-.1,0-.1-.2s0-.2.1-.2h1c0,0,.1,0,.1.2s0,.2-.1.2Z"/>
            <path class="st10" d="M125.4,63.7h-1c0,0-.1,0-.1-.2s0-.2.1-.2h1c0,0,.1,0,.1.2s0,.2-.1.2Z"/>
            <path class="st10" d="M124.5,61.8h1.5c.1,0,.2.1.2.3s0,.3-.2.3h-1.5c-.1,0-.2-.1-.2-.3s0-.3.2-.3Z"/>
            <path class="st10" d="M125.4,60.7h-1c0,0-.1,0-.1-.2s0-.2.1-.2h1c0,0,.1,0,.1.2s0,.2-.1.2Z"/>
            <path class="st10" d="M125.4,59.3h-1c0,0-.1,0-.1-.2s0-.2.1-.2h1c0,0,.1,0,.1.2s0,.2-.1.2Z"/>
            <path class="st10" d="M125.4,57.8h-1c0,0-.1,0-.1-.2s0-.2.1-.2h1c0,0,.1,0,.1.2s0,.2-.1.2Z"/>
            <path class="st10" d="M125.4,56.3h-1c0,0-.1,0-.1-.2s0-.2.1-.2h1c0,0,.1,0,.1.2s0,.2-.1.2Z"/>
            <path class="st10" d="M124.5,54.3h1.5c.1,0,.2.1.2.3s0,.3-.2.3h-1.5c-.1,0-.2-.1-.2-.3s0-.3.2-.3Z"/>
            <path class="st10" d="M125.4,53.3h-1c0,0-.1,0-.1-.2s0-.2.1-.2h1c0,0,.1,0,.1.2s0,.2-.1.2Z"/>
            <path class="st10" d="M125.4,51.8h-1c0,0-.1,0-.1-.2s0-.2.1-.2h1c0,0,.1,0,.1.2s0,.2-.1.2Z"/>
            <path class="st10" d="M125.4,50.3h-1c0,0-.1,0-.1-.2s0-.2.1-.2h1c0,0,.1,0,.1.2s0,.2-.1.2Z"/>
            <path class="st10" d="M125.4,48.9h-1c0,0-.1,0-.1-.2s0-.2.1-.2h1c0,0,.1,0,.1.2s0,.2-.1.2Z"/>
            <path class="st10" d="M124.5,46.9h1.5c.1,0,.2.1.2.3s0,.3-.2.3h-1.5c-.1,0-.2-.1-.2-.3s0-.3.2-.3Z"/>
            <path class="st10" d="M124.5,45.6h1c0,0,.1,0,.1.2s0,.2-.1.2h-1c0,0-.1,0-.1-.2s0-.2.1-.2Z"/>
            <path class="st10" d="M124.5,44.1h1c0,0,.1,0,.1.2s0,.2-.1.2h-1c0,0-.1,0-.1-.2s0-.2.1-.2Z"/>
            <path class="st10" d="M124.5,42.6h1c0,0,.1,0,.1.2s0,.2-.1.2h-1c0,0-.1,0-.1-.2s0-.2.1-.2Z"/>
            <path class="st10" d="M124.5,41.1h1c0,0,.1,0,.1.2s0,.2-.1.2h-1c0,0-.1,0-.1-.2s0-.2.1-.2Z"/>
            <path class="st10" d="M125.4,38.4h-1c0,0-.1,0-.1-.2s0-.2.1-.2h1c0,0,.1,0,.1.2s0,.2-.1.2Z"/>
            <path class="st10" d="M125.4,37h-1c0,0-.1,0-.1-.2s0-.2.1-.2h1c0,0,.1,0,.1.2s0,.2-.1.2Z"/>
            <path class="st10" d="M125.4,35.5h-1c0,0-.1,0-.1-.2s0-.2.1-.2h1c0,0,.1,0,.1.2s0,.2-.1.2Z"/>
            <path class="st10" d="M125.4,34h-1c0,0-.1,0-.1-.2s0-.2.1-.2h1c0,0,.1,0,.1.2s0,.2-.1.2Z"/>
            <path class="st10" d="M124.5,32h1.5c.1,0,.2.1.2.3s0,.3-.2.3h-1.5c-.1,0-.2-.1-.2-.3s0-.3.2-.3Z"/>
            <path class="st10" d="M124.5,39.5h1.5c.1,0,.2.1.2.3s0,.3-.2.3h-1.5c-.1,0-.2-.1-.2-.3s0-.3.2-.3Z"/>
            <path class="st10" d="M125.4,31h-1c0,0-.1,0-.1-.2s0-.2.1-.2h1c0,0,.1,0,.1.2s0,.2-.1.2Z"/>
            <path class="st10" d="M125.4,29.5h-1c0,0-.1,0-.1-.2s0-.2.1-.2h1c0,0,.1,0,.1.2s0,.2-.1.2Z"/>
            <path class="st10" d="M125.4,28h-1c0,0-.1,0-.1-.2s0-.2.1-.2h1c0,0,.1,0,.1.2s0,.2-.1.2Z"/>
            <path class="st10" d="M125.4,26.6h-1c0,0-.1,0-.1-.2s0-.2.1-.2h1c0,0,.1,0,.1.2s0,.2-.1.2Z"/>
            <path class="st10" d="M125.4,22.1h-1c0,0-.1,0-.1-.2s0-.2.1-.2h1c0,0,.1,0,.1.2s0,.2-.1.2Z"/>
            <path class="st10" d="M125.4,19.1h-1c0,0-.1,0-.1-.2s0-.2.1-.2h1c0,0,.1,0,.1.2s0,.2-.1.2Z"/>
            <path class="st10" d="M124.5,24.6h1.5c.1,0,.2.1.2.3s0,.3-.2.3h-1.5c-.1,0-.2-.1-.2-.3s0-.3.2-.3Z"/>
            <path class="st10" d="M124.5,17.2h1.5c.1,0,.2.1.2.3s0,.3-.2.3h-1.5c-.1,0-.2-.1-.2-.3s0-.3.2-.3Z"/>
            <path class="st10" d="M125.4,23.6h-1c0,0-.1,0-.1-.2s0-.2.1-.2h1c0,0,.1,0,.1.2s0,.2-.1.2Z"/>
            <path class="st10" d="M125.4,20.6h-1c0,0-.1,0-.1-.2s0-.2.1-.2h1c0,0,.1,0,.1.2s0,.2-.1.2Z"/>
          </g>
          <path d="M128.9,90.2c.1,0,.2,0,.3.1,0,0,.2.2.2.3,0,.1,0,.2.1.4,0,.1,0,.3,0,.5s0,.3,0,.5c0,.1,0,.3-.1.4,0,.1-.1.2-.2.3,0,0-.2.1-.3.1s-.2,0-.3-.1c0,0-.2-.2-.2-.3,0-.1,0-.2-.1-.4,0-.1,0-.3,0-.5s0-.3,0-.5c0-.1,0-.3.1-.4,0-.1.1-.2.2-.3,0,0,.2-.1.3-.1ZM128.9,90.4c0,0-.2,0-.2,0,0,0-.1.1-.1.2,0,.1,0,.2,0,.3,0,.1,0,.2,0,.4s0,.2,0,.4c0,.1,0,.2,0,.3,0,0,0,.2.1.2,0,0,.1,0,.2,0s.2,0,.2,0c0,0,.1-.1.1-.2,0,0,0-.2,0-.3,0-.1,0-.2,0-.4s0-.2,0-.4c0-.1,0-.2,0-.3,0-.1,0-.2-.1-.2,0,0-.1,0-.2,0Z"/>
          <g>
            <path d="M128.4,84.6h-.2v-1.5l-.3.3h0c0-.1.4-.5.4-.5h.1v1.7Z"/>
            <path d="M129.4,82.8c0,0,.2,0,.2,0,0,0,.1.1.2.2,0,0,0,.2,0,.3,0,.1,0,.2,0,.3s0,.2,0,.3c0,.1,0,.2,0,.3,0,0,0,.2-.2.2,0,0-.1,0-.2,0s-.2,0-.2,0c0,0-.1-.1-.2-.2,0,0,0-.2,0-.3,0-.1,0-.2,0-.3s0-.2,0-.3c0-.1,0-.2,0-.3,0,0,0-.2.2-.2,0,0,.1,0,.2,0ZM129.4,83c0,0-.1,0-.2,0,0,0,0,.1-.1.2,0,0,0,.2,0,.2,0,0,0,.2,0,.3s0,.2,0,.3c0,0,0,.2,0,.2,0,0,0,.1.1.2,0,0,.1,0,.2,0s.1,0,.2,0c0,0,0-.1.1-.2,0,0,0-.2,0-.2,0,0,0-.2,0-.3s0-.2,0-.3c0,0,0-.2,0-.2,0,0,0-.1-.1-.2,0,0,0,0-.2,0Z"/>
          </g>
          <g>
            <path d="M128.8,77.2h-1v-.2l.6-.7s0,0,0,0c0,0,0,0,0,0,0,0,0,0,0-.1,0,0,0,0,0-.1s0,0,0-.1c0,0,0,0,0-.1,0,0,0,0,0,0,0,0,0,0-.1,0,0,0-.1,0-.2,0,0,0,0,.1-.1.2h-.2c0,0,0-.1,0-.2,0,0,0,0,.1-.1,0,0,0,0,.1,0,0,0,.1,0,.2,0s.1,0,.2,0c0,0,.1,0,.1,0,0,0,0,0,0,.1,0,0,0,.1,0,.2s0,.1,0,.2c0,0,0,0,0,.1,0,0,0,0,0,.1,0,0,0,0,0,.1l-.5.6h.8v.2Z"/>
            <path d="M129.5,75.5c0,0,.2,0,.2,0,0,0,.1.1.2.2,0,0,0,.2,0,.3,0,.1,0,.2,0,.3s0,.2,0,.3c0,.1,0,.2,0,.3,0,0,0,.2-.2.2,0,0-.1,0-.2,0s-.2,0-.2,0c0,0-.1-.1-.2-.2,0,0,0-.2,0-.3,0-.1,0-.2,0-.3s0-.2,0-.3c0-.1,0-.2,0-.3,0,0,0-.2.2-.2,0,0,.1,0,.2,0ZM129.5,75.6c0,0-.1,0-.2,0,0,0,0,.1-.1.2,0,0,0,.2,0,.2,0,0,0,.2,0,.3s0,.2,0,.3c0,0,0,.2,0,.2,0,0,0,.1.1.2,0,0,.1,0,.2,0s.1,0,.2,0c0,0,0-.1.1-.2,0,0,0-.2,0-.2,0,0,0-.2,0-.3s0-.2,0-.3c0,0,0-.2,0-.2,0,0,0-.1-.1-.2,0,0,0,0-.2,0Z"/>
          </g>
          <g>
            <path d="M128.2,68.9h0s0,0,.1,0c0,0,0,0,.1,0,0,0,0,0,0,0,0,0,0,0,0-.1s0,0,0-.1c0,0,0,0,0-.1,0,0,0,0,0,0,0,0,0,0-.1,0,0,0-.1,0-.2,0,0,0,0,0-.1.1h-.1c0-.2.1-.2.2-.3,0,0,.2,0,.3,0s.1,0,.2,0c0,0,.1,0,.1,0,0,0,0,0,0,.1,0,0,0,.1,0,.2s0,.2,0,.3c0,0-.1.1-.2.1h0c0,0,.2,0,.2.1,0,0,0,.2,0,.3s0,.2,0,.2c0,0,0,.1-.1.2,0,0,0,0-.2.1,0,0-.1,0-.2,0-.1,0-.2,0-.3,0,0,0-.1-.1-.2-.3h.1s0,0,.1.1c0,0,.1,0,.2,0s0,0,.1,0c0,0,0,0,.1,0,0,0,0,0,0-.1,0,0,0,0,0-.2s0-.1,0-.2c0,0,0,0,0-.1,0,0,0,0-.1,0,0,0,0,0-.1,0h0v-.2Z"/>
            <path d="M129.5,68.1c0,0,.2,0,.2,0,0,0,.1.1.2.2,0,0,0,.2,0,.3,0,.1,0,.2,0,.3s0,.2,0,.3c0,.1,0,.2,0,.3,0,0,0,.2-.2.2,0,0-.1,0-.2,0s-.2,0-.2,0c0,0-.1-.1-.2-.2,0,0,0-.2,0-.3,0-.1,0-.2,0-.3s0-.2,0-.3c0-.1,0-.2,0-.3,0,0,0-.2.2-.2,0,0,.1,0,.2,0ZM129.5,68.2c0,0-.1,0-.2,0,0,0,0,.1-.1.2,0,0,0,.2,0,.2,0,0,0,.2,0,.3s0,.2,0,.3c0,0,0,.2,0,.2,0,0,0,.1.1.2,0,0,.1,0,.2,0s.1,0,.2,0c0,0,0-.1.1-.2,0,0,0-.2,0-.2,0,0,0-.2,0-.3s0-.2,0-.3c0,0,0-.2,0-.2,0,0,0-.1-.1-.2,0,0,0,0-.2,0Z"/>
          </g>
          <g>
            <path d="M128.7,61.9h.2v.2h-.2v.4h-.2v-.4h-.7v-.2l.6-1.1h.2v1.2ZM128.5,61h0l-.5,1h.5v-1Z"/>
            <path d="M129.5,60.7c0,0,.2,0,.2,0,0,0,.1.1.2.2,0,0,0,.2,0,.3,0,.1,0,.2,0,.3s0,.2,0,.3c0,.1,0,.2,0,.3,0,0,0,.2-.2.2,0,0-.1,0-.2,0s-.2,0-.2,0c0,0-.1-.1-.2-.2,0,0,0-.2,0-.3,0-.1,0-.2,0-.3s0-.2,0-.3c0-.1,0-.2,0-.3,0,0,0-.2.2-.2,0,0,.1,0,.2,0ZM129.5,60.9c0,0-.1,0-.2,0,0,0,0,.1-.1.2,0,0,0,.2,0,.2,0,0,0,.2,0,.3s0,.2,0,.3c0,0,0,.2,0,.2s0,.1.1.2c0,0,0,0,.2,0s.1,0,.2,0c0,0,0-.1.1-.2s0-.2,0-.2c0,0,0-.2,0-.3s0-.2,0-.3c0,0,0-.2,0-.2,0,0,0-.1-.1-.2,0,0,0,0-.2,0Z"/>
          </g>
          <g>
            <path d="M128.7,53.5h-.6v.5s0,0,0,0c0,0,0,0,.1,0,0,0,.1,0,.2,0,0,0,.1,0,.2.1,0,0,0,.1.1.2,0,0,0,.1,0,.2s0,.2,0,.2c0,0,0,.1-.1.2,0,0,0,0-.2.1,0,0-.1,0-.2,0-.1,0-.2,0-.3,0,0,0-.1-.1-.2-.2h.1s0,0,.1.1c0,0,.1,0,.2,0s0,0,.1,0c0,0,0,0,.1,0,0,0,0,0,0-.1,0,0,0-.1,0-.2s0-.1,0-.2c0,0,0,0,0-.1,0,0,0,0-.1,0,0,0,0,0-.2,0s-.1,0-.2,0c0,0-.1,0-.2,0v-.9h.8v.2Z"/>
            <path d="M129.5,53.3c0,0,.2,0,.2,0,0,0,.1.1.2.2,0,0,0,.2,0,.3,0,.1,0,.2,0,.3s0,.2,0,.3c0,.1,0,.2,0,.3,0,0,0,.2-.2.2,0,0-.1,0-.2,0s-.2,0-.2,0c0,0-.1-.1-.2-.2,0,0,0-.2,0-.3,0-.1,0-.2,0-.3s0-.2,0-.3c0-.1,0-.2,0-.3s0-.2.2-.2c0,0,.1,0,.2,0ZM129.5,53.5c0,0-.1,0-.2,0,0,0,0,.1-.1.2,0,0,0,.2,0,.2,0,0,0,.2,0,.3s0,.2,0,.3c0,0,0,.2,0,.2,0,0,0,.1.1.2,0,0,.1,0,.2,0s.1,0,.2,0c0,0,0-.1.1-.2,0,0,0-.2,0-.2,0,0,0-.2,0-.3s0-.2,0-.3c0,0,0-.2,0-.2,0,0,0-.1-.1-.2,0,0-.1,0-.2,0Z"/>
          </g>
          <g>
            <path d="M128.1,46.8h0s0,0,0,0c0,0,0,0,.1,0,0,0,.1,0,.2,0,0,0,.1,0,.1.1,0,0,0,.1,0,.2,0,0,0,.1,0,.2s0,.2,0,.2c0,0,0,.1-.1.2,0,0,0,0-.2.1,0,0-.1,0-.2,0s-.1,0-.2,0c0,0-.1,0-.2-.1,0,0,0-.1-.1-.2,0,0,0-.1,0-.2s0-.2,0-.2c0,0,0-.2,0-.2l.4-.8h.2l-.4.8ZM128,47.2c0,0,0,.1,0,.2,0,0,0,0,0,.1,0,0,0,0,.1,0,0,0,0,0,.1,0s0,0,.1,0c0,0,0,0,.1,0,0,0,0,0,0-.1,0,0,0,0,0-.2s0-.1,0-.2c0,0,0,0,0-.1,0,0,0,0-.1,0,0,0,0,0-.1,0s0,0-.1,0c0,0,0,0-.1,0,0,0,0,0,0,.1,0,0,0,0,0,.2Z"/>
            <path d="M129.5,46c0,0,.2,0,.2,0,0,0,.1.1.2.2,0,0,0,.2,0,.3,0,.1,0,.2,0,.3s0,.2,0,.3c0,.1,0,.2,0,.3,0,0,0,.2-.2.2,0,0-.1,0-.2,0s-.2,0-.2,0c0,0-.1-.1-.2-.2,0,0,0-.2,0-.3,0-.1,0-.2,0-.3s0-.2,0-.3c0-.1,0-.2,0-.3,0,0,0-.2.2-.2,0,0,.1,0,.2,0ZM129.5,46.1c0,0-.1,0-.2,0,0,0,0,.1-.1.2,0,0,0,.2,0,.2,0,0,0,.2,0,.3s0,.2,0,.3c0,0,0,.2,0,.2,0,0,0,.1.1.2,0,0,.1,0,.2,0s.1,0,.2,0c0,0,0-.1.1-.2,0,0,0-.2,0-.2,0,0,0-.2,0-.3s0-.2,0-.3c0,0,0-.2,0-.2,0,0,0-.1-.1-.2,0,0,0,0-.2,0Z"/>
          </g>
          <g>
            <path d="M128.8,38.8l-.6,1.6h-.2l.6-1.6h-.7v-.2h.9v.2Z"/>
            <path d="M129.4,38.6c0,0,.2,0,.2,0,0,0,.1.1.2.2,0,0,0,.2,0,.3,0,.1,0,.2,0,.3s0,.2,0,.3c0,.1,0,.2,0,.3,0,0,0,.2-.2.2,0,0-.1,0-.2,0s-.2,0-.2,0c0,0-.1-.1-.2-.2,0,0,0-.2,0-.3,0-.1,0-.2,0-.3s0-.2,0-.3c0-.1,0-.2,0-.3,0,0,0-.2.2-.2,0,0,.1,0,.2,0ZM129.4,38.8c0,0-.1,0-.2,0,0,0,0,.1-.1.2,0,0,0,.2,0,.2,0,0,0,.2,0,.3s0,.2,0,.3c0,0,0,.2,0,.2,0,0,0,.1.1.2,0,0,0,0,.2,0s.1,0,.2,0c0,0,0-.1.1-.2,0,0,0-.2,0-.2,0,0,0-.2,0-.3s0-.2,0-.3c0,0,0-.2,0-.2,0,0,0-.1-.1-.2,0,0,0,0-.2,0Z"/>
          </g>
          <g>
            <path d="M128.5,32.1c0,0,.2,0,.2.2,0,0,0,.2,0,.3s0,.1,0,.2c0,0,0,.1-.1.2,0,0,0,0-.2.1,0,0-.1,0-.2,0s-.1,0-.2,0c0,0-.1,0-.2-.1,0,0,0,0-.1-.2,0,0,0-.1,0-.2s0-.1,0-.2c0,0,0,0,0-.1,0,0,0,0,0-.1,0,0,0,0,.1,0h0s0,0,0,0c0,0,0,0,0,0,0,0,0,0,0-.1,0,0,0,0,0-.1,0,0,0-.1,0-.2,0,0,0-.1,0-.1,0,0,0,0,.1,0,0,0,.1,0,.2,0s.1,0,.2,0c0,0,0,0,.1,0,0,0,0,0,0,.1,0,0,0,.1,0,.2s0,0,0,.1c0,0,0,0,0,.1,0,0,0,0,0,0,0,0,0,0,0,0h0ZM128,32.5c0,0,0,.1,0,.1,0,0,0,0,0,.1,0,0,0,0,.1,0,0,0,0,0,.1,0s0,0,.1,0c0,0,0,0,.1,0,0,0,0,0,0-.1,0,0,0,0,0-.1s0-.1,0-.1c0,0,0,0,0-.1,0,0,0,0-.1,0,0,0,0,0-.1,0s0,0-.1,0c0,0,0,0-.1,0,0,0,0,0,0,.1,0,0,0,0,0,.1ZM128,31.7s0,0,0,.1c0,0,0,0,0,0,0,0,0,0,0,0,0,0,0,0,.1,0s0,0,.1,0c0,0,0,0,0,0,0,0,0,0,0,0,0,0,0,0,0-.1s0,0,0-.1c0,0,0,0,0-.1,0,0,0,0,0,0,0,0,0,0-.1,0s0,0-.1,0c0,0,0,0,0,0,0,0,0,0,0,.1,0,0,0,0,0,.1Z"/>
            <path d="M129.5,31.2c0,0,.2,0,.2,0,0,0,.1.1.2.2,0,0,0,.2,0,.3,0,.1,0,.2,0,.3s0,.2,0,.3c0,.1,0,.2,0,.3,0,0,0,.2-.2.2,0,0-.1,0-.2,0s-.2,0-.2,0c0,0-.1-.1-.2-.2,0,0,0-.2,0-.3,0-.1,0-.2,0-.3s0-.2,0-.3c0-.1,0-.2,0-.3,0,0,0-.2.2-.2,0,0,.1,0,.2,0ZM129.5,31.4c0,0-.1,0-.2,0,0,0,0,.1-.1.2,0,0,0,.2,0,.2,0,0,0,.2,0,.3s0,.2,0,.3c0,0,0,.2,0,.2,0,0,0,.1.1.2,0,0,.1,0,.2,0s.1,0,.2,0c0,0,0-.1.1-.2,0,0,0-.2,0-.2,0,0,0-.2,0-.3s0-.2,0-.3c0,0,0-.2,0-.2,0,0,0-.1-.1-.2,0,0-.1,0-.2,0Z"/>
          </g>
          <g>
            <path d="M128.5,24.9h0s0,0,0,0c0,0,0,0-.1,0,0,0-.1,0-.2,0,0,0-.1,0-.1-.1,0,0,0-.1,0-.2,0,0,0-.1,0-.2s0-.2,0-.2c0,0,0-.1.1-.2,0,0,0,0,.2-.1,0,0,.1,0,.2,0s.1,0,.2,0c0,0,.1,0,.2.1,0,0,0,.1.1.2,0,0,0,.1,0,.2s0,.2,0,.2c0,0,0,.2,0,.2l-.4.8h-.2l.4-.8ZM128.7,24.4c0,0,0-.1,0-.2,0,0,0,0,0-.1,0,0,0,0-.1,0,0,0,0,0-.1,0s0,0-.1,0c0,0,0,0-.1,0,0,0,0,0,0,.1,0,0,0,.1,0,.2s0,.1,0,.2c0,0,0,0,0,.1,0,0,0,0,.1,0,0,0,0,0,.1,0s0,0,.1,0c0,0,0,0,.1,0,0,0,0,0,0-.1,0,0,0,0,0-.2Z"/>
            <path d="M129.5,23.9c0,0,.2,0,.2,0,0,0,.1.1.2.2,0,0,0,.2,0,.3,0,.1,0,.2,0,.3s0,.2,0,.3c0,.1,0,.2,0,.3,0,0,0,.2-.2.2,0,0-.1,0-.2,0s-.2,0-.2,0c0,0-.1-.1-.2-.2,0,0,0-.2,0-.3,0-.1,0-.2,0-.3s0-.2,0-.3c0-.1,0-.2,0-.3,0,0,0-.2.2-.2,0,0,.1,0,.2,0ZM129.5,24c0,0-.1,0-.2,0,0,0,0,.1-.1.2,0,0,0,.2,0,.2,0,0,0,.2,0,.3s0,.2,0,.3c0,0,0,.2,0,.2,0,0,0,.1.1.2,0,0,.1,0,.2,0s.1,0,.2,0c0,0,0-.1.1-.2,0,0,0-.2,0-.2,0,0,0-.2,0-.3s0-.2,0-.3c0,0,0-.2,0-.2,0,0,0-.1-.1-.2,0,0-.1,0-.2,0Z"/>
          </g>
          <g>
            <path d="M127.8,18.3h-.2v-1.5l-.3.3h0c0-.1.4-.5.4-.5h.1v1.7Z"/>
            <path d="M128.8,16.5c0,0,.2,0,.2,0,0,0,.1.1.2.2,0,0,0,.2,0,.3,0,.1,0,.2,0,.3s0,.2,0,.3c0,.1,0,.2,0,.3,0,0,0,.2-.2.2,0,0-.1,0-.2,0s-.2,0-.2,0c0,0-.1-.1-.2-.2,0,0,0-.2,0-.3,0-.1,0-.2,0-.3s0-.2,0-.3c0-.1,0-.2,0-.3,0,0,0-.2.2-.2,0,0,.1,0,.2,0ZM128.8,16.6c0,0-.1,0-.2,0,0,0,0,.1-.1.2,0,0,0,.2,0,.2,0,0,0,.2,0,.3s0,.2,0,.3c0,0,0,.2,0,.2,0,0,0,.1.1.2,0,0,.1,0,.2,0s.1,0,.2,0c0,0,0-.1.1-.2,0,0,0-.2,0-.2,0,0,0-.2,0-.3s0-.2,0-.3c0,0,0-.2,0-.2,0,0,0-.1-.1-.2,0,0,0,0-.2,0Z"/>
            <path d="M130,16.5c0,0,.2,0,.2,0,0,0,.1.1.2.2,0,0,0,.2,0,.3,0,.1,0,.2,0,.3s0,.2,0,.3c0,.1,0,.2,0,.3,0,0,0,.2-.2.2,0,0-.1,0-.2,0s-.2,0-.2,0c0,0-.1-.1-.2-.2,0,0,0-.2,0-.3,0-.1,0-.2,0-.3s0-.2,0-.3c0-.1,0-.2,0-.3,0,0,0-.2.2-.2,0,0,.1,0,.2,0ZM130,16.6c0,0-.1,0-.2,0,0,0,0,.1-.1.2,0,0,0,.2,0,.2,0,0,0,.2,0,.3s0,.2,0,.3c0,0,0,.2,0,.2,0,0,0,.1.1.2,0,0,.1,0,.2,0s.1,0,.2,0c0,0,0-.1.1-.2,0,0,0-.2,0-.2,0,0,0-.2,0-.3s0-.2,0-.3c0,0,0-.2,0-.2,0,0,0-.1-.1-.2,0,0,0,0-.2,0Z"/>
          </g>
        </g>
        <path class="st3" d="M85.5,63.7v8.6h7.3v2.2h-7.3v8.7h-2.1v-8.7h-7.3v-2.2h7.3v-8.6h2.1Z"/>
        <g>
          <path class="st3" d="M157.7,65.1v2.4h-8v-2.4h8Z"/>
          <path class="st3" d="M166.9,72.5c.8.6,2.7,1.5,4.7,1.5,3.7,0,4.8-2.6,4.7-4.6,0-3.3-2.7-4.8-5.4-4.8h-1.6v-2.4h1.6c2.1,0,4.7-1.2,4.7-4s-1.1-3.6-3.7-3.6-3.3.8-4.2,1.6l-.7-2.3c1.1-.9,3.2-1.8,5.5-1.8,4.1,0,6,2.8,6,5.7s-1.3,4.6-3.9,5.6h0c2.6.7,4.7,2.9,4.7,6.2s-2.6,7.2-7.7,7.2-4.4-.8-5.5-1.6l.8-2.5Z"/>
          <path class="st3" d="M190.2,72.9c.8.6,2.3,1.3,3.7,1.3,2.1,0,3-1.2,3-2.6s-.8-2.4-2.9-3.3c-2.8-1.1-4.1-2.9-4.1-5s2-5.2,5.4-5.2,3,.5,3.8,1.1l-.7,2.3c-.6-.4-1.7-1-3.2-1s-2.6,1.1-2.6,2.4.9,2.1,3,3c2.7,1.2,4.1,2.7,4.1,5.4s-2.1,5.3-5.8,5.3-3.3-.5-4.4-1.2l.7-2.5Z"/>
          <path class="st3" d="M206.5,53.4c0,1.1-.7,2-1.8,2s-1.7-.9-1.7-2,.7-2,1.8-2,1.7.9,1.7,2ZM203.4,76.2v-17.8h2.8v17.8h-2.8Z"/>
          <path class="st3" d="M210.5,72.9c.8.6,2.3,1.3,3.7,1.3,2.1,0,3-1.2,3-2.6s-.8-2.4-2.9-3.3c-2.8-1.1-4.1-2.9-4.1-5s2-5.2,5.4-5.2,3,.5,3.8,1.1l-.7,2.3c-.6-.4-1.7-1-3.2-1s-2.6,1.1-2.6,2.4.9,2.1,3,3c2.7,1.2,4.1,2.7,4.1,5.4s-2.1,5.3-5.8,5.3-3.3-.5-4.4-1.2l.7-2.5Z"/>
          <path class="st3" d="M227.2,53.3v5.1h4.1v2.5h-4.1v9.6c0,2.2.5,3.5,2.1,3.5s1.3-.1,1.6-.2v2.4c-.4.3-1.3.4-2.4.4s-2.4-.5-3.1-1.4c-.8-1-1.1-2.5-1.1-4.6v-9.7h-2.4v-2.5h2.4v-4.3l2.8-.8Z"/>
          <path class="st3" d="M235.8,67.9c0,4.4,2.5,6.2,5.4,6.2s3.3-.4,4.3-.9l.5,2.3c-1,.5-2.7,1.1-5.2,1.1-4.8,0-7.7-3.6-7.7-9s2.8-9.6,7.3-9.6,6.5,5.1,6.5,8.4,0,1.2,0,1.5h-11ZM244.1,65.6c0-2.1-.7-5.2-3.9-5.2s-4.1,3-4.4,5.2h8.3Z"/>
        </g>
        <g>
          <polygon class="st12" points="455.5 124.1 410.4 111 426.5 39.3 471.7 52.4 455.5 124.1"/>
          <path class="st2" d="M455.7,123.5c-5.1-1.5-10.2-3-15.3-4.4-8.1-2.3-16.2-4.7-24.3-7s-3.8-1.1-5.6-1.6l.4.8c1.8-8.1,3.7-16.2,5.5-24.4,2.9-12.8,5.8-25.7,8.7-38.5s1.3-5.9,2-8.8l-.7.3c5.1,1.5,10.2,3,15.3,4.4,8.1,2.3,16.2,4.7,24.3,7s3.8,1.1,5.6,1.6l-.4-.8c-1.8,8.1-3.7,16.2-5.5,24.4-2.9,12.8-5.8,25.7-8.7,38.5-.7,2.9-1.3,5.9-2,8.8s.9,1.3,1.1.5c1.8-8.1,3.7-16.2,5.5-24.4,2.9-12.8,5.8-25.7,8.7-38.5.7-2.9,1.3-5.9,2-8.8s0-.7-.4-.8c-5.1-1.5-10.2-3-15.3-4.4-8.1-2.3-16.2-4.7-24.3-7s-3.8-1.1-5.6-1.6-.6,0-.7.3c-1.8,8.1-3.7,16.2-5.5,24.4-2.9,12.8-5.8,25.7-8.7,38.5-.7,2.9-1.3,5.9-2,8.8s0,.7.4.8c5.1,1.5,10.2,3,15.3,4.4,8.1,2.3,16.2,4.7,24.3,7s3.8,1.1,5.6,1.6,1-1,.3-1.2Z"/>
        </g>
        <g>
          <g>
            <path class="st5" d="M463,68.7l-35.4-10c-.1,0-.2-.1-.1-.3s.1-.2.2-.2l35.4,10c.1,0,.2.1.1.3,0,.1-.1.2-.2.2Z"/>
            <path class="st2" d="M462.9,68.3c-10.3-2.9-20.7-5.8-31-8.8l-3-.8c-.2,0-1.2-.5-1.4-.4-.4.2.6.5.8.6l2.2.6,18.2,5.1,10,2.8,3.2.9c.3,0,.6.2.9.2.9.2-.6-.3-.2-.4-.6,0,.3,1,.7.9,1-.2,0-1.2-.5-1.3s-1.2-.3-1.8-.5l-8.1-2.3-20.5-5.8c-1.5-.4-3.2-1.1-4.7-1.3s-.7.9,0,1.2.8.2,1.2.4l18,5.1c5.4,1.5,10.8,3,16.2,4.6s.3-.7-.2-.8Z"/>
          </g>
          <g>
            <path class="st5" d="M461.6,75.1l-35.4-10c-.1,0-.2-.1-.1-.3,0-.1.1-.2.2-.2l35.4,10c.1,0,.2.1.1.3,0,.1-.1.2-.2.2Z"/>
            <path class="st2" d="M461.9,74.6c-10.3-2.9-20.7-5.8-31-8.8l-3.2-.9c-.3,0-.6-.2-.9-.3-.6,0,.1-.2-.1.3l-.5.4c-.2,0-.1,0,0,0s.5.1.7.2l2.5.7c2.8.8,5.6,1.6,8.4,2.4,6.4,1.8,12.7,3.6,19.1,5.4l3.2.9c.3,0,.6.2.9.3.6,0-.1.2.1-.3l.5-.4h-.1c-.7.1-.8,1.3,0,1.2s1.1-1.2.2-1.6-1.2-.4-1.8-.5l-8.1-2.3c-6.8-1.9-13.7-3.9-20.5-5.8s-3.2-1.1-4.7-1.3-1.7.9-.7,1.5.9.2,1.2.4c6,1.7,12,3.4,18,5.1s10.8,3,16.2,4.6,1.3-.9.6-1.1Z"/>
          </g>
          <g>
            <path class="st5" d="M460.2,81.4l-35.4-10c-.1,0-.2-.1-.1-.3,0-.1.1-.2.2-.2l35.4,10c.1,0,.2.1.1.3s-.1.2-.2.2Z"/>
            <path class="st2" d="M460.6,80.9c-10.3-2.9-20.7-5.8-31-8.8l-3.2-.9c-.3,0-.6-.2-.9-.3-.6,0,0-.2-.2.2l-.5.3c-.2,0,0,0,.1,0s.5.1.7.2l2.5.7,8.4,2.4c6.4,1.8,12.7,3.6,19.1,5.4l3.2.9c.3,0,.6.2.9.3.6,0,0,.2.2-.2l.5-.3h-.1c-.6.1-.9,1.2-.1,1.1s1.2-1.1.3-1.5-1.2-.4-1.8-.5l-8.1-2.3c-6.8-1.9-13.7-3.9-20.5-5.8s-3.2-1.1-4.7-1.3-1.8.8-.8,1.4.9.2,1.2.4c6,1.7,12,3.4,18,5.1s10.8,3,16.2,4.6,1.4-.8.7-1Z"/>
          </g>
          <g>
            <path class="st5" d="M458.8,87.8l-35.4-10c-.1,0-.2-.1-.1-.3,0-.1.1-.2.2-.2l35.4,10c.1,0,.2.1.1.3,0,.1-.1.2-.2.2Z"/>
            <path class="st2" d="M458.9,87.4c-10.3-2.9-20.7-5.8-31-8.8l-3-.8c-.3,0-1.1-.5-1.4-.4-.8.3.1.5.3.6l2.2.6,18.2,5.1,10,2.8,3.2.9c.3,0,.6.2.9.2s.2,0,.2,0,0,0,0,0h0c.2,0,.1-.1-.1-.5-.8.1-.2,1,.4.9,1.1-.2.6-1.1-.1-1.4s-1.2-.3-1.8-.5l-8.1-2.3-20.5-5.8c-1.5-.4-3.2-1.1-4.7-1.3s-1.4.8-.4,1.3.9.2,1.2.4l18,5.1c5.4,1.5,10.8,3,16.2,4.6s1-.6.3-.9Z"/>
          </g>
          <g>
            <path class="st5" d="M457.4,94.4l-35.4-10c-.1,0-.2-.1-.1-.3,0-.1.1-.2.2-.2l35.4,10c.1,0,.2.1.1.3,0,.1-.1.2-.2.2Z"/>
            <path class="st2" d="M456.9,94c-10.3-2.9-20.7-5.8-31-8.8-1.5-.4-3-.8-4.5-1.3l.9.5c-.4-.3,1,0,1,0l2.5.7c2.8.8,5.6,1.6,8.3,2.4,6.4,1.8,12.9,3.6,19.3,5.5l4.5,1.3-.9-.5c.2.1-.2.3-.2.3.2,0,.7.8,1.1.7.8-.1-.8-1-1.1-1.2-.6-.2-1.2-.3-1.8-.5l-8.2-2.3c-6.8-1.9-13.7-3.9-20.5-5.8l-3.2-.9c-.4-.1-1.1-.5-1.5-.4-.9.2.5,1,.9,1.1s.8.2,1.2.4l18,5.1c5.4,1.5,10.8,3,16.2,4.6-.2,0-.7-.6-1-.7Z"/>
          </g>
          <g>
            <path class="st5" d="M456,100.8l-35.4-10c-.1,0-.2-.1-.1-.3,0-.1.1-.2.2-.2l35.4,10c.1,0,.2.1.1.3,0,.1-.1.2-.2.2Z"/>
            <path class="st2" d="M455.9,100.3c-10.3-2.9-20.7-5.8-31-8.8l-3-.8c-.2,0-1.2-.5-1.4-.4-.5.3.6.6.8.7l2.2.6c6.1,1.7,12.1,3.4,18.2,5.1l10,2.8,3.2.9c.3,0,.6.2.9.2.9.1-.9-.3-.2-.4-.7.1.2,1,.7.9,1.1-.2,0-1.2-.5-1.4s-1.2-.3-1.8-.5l-8.1-2.3c-6.8-1.9-13.7-3.9-20.5-5.8l-3.2-.9c-.5-.1-1-.4-1.5-.4-1.2-.1-.8,1.1,0,1.4s.8.2,1.2.4c6,1.7,12,3.4,18,5.1s10.8,3,16.2,4.6.4-.8-.2-1Z"/>
          </g>
        </g>
        <g>
          <g>
            <path class="st11" d="M492.8,36.4c-2.1,11.2-11.4,16.7-19.1,22.8-2.9,2-7.2,5.9-10.5,5.4-.6,0,1.6-2.9,1.8-3.4,1.1-2.2,2.3-3.4,2.7-5.9-.4-.5-1.2-.4-1.5-1.1-.3-1.5,3.3-5.3,4.2-6.7-.5-.3-2.7-.7-2.3-1.8,1.6-2.6,3.6-5,5.1-7.7.4-.8,1-1.5,1.3-2.3,0-.3-.5-.4-.7-.6-2.1-1.4-3.2-1.5-1.2-4.1,1.4-2,3.1-4,4.6-5.9.2-.2,1.5-.6,1.8-.5,3.8-1.6,6.9,0,10.4,2.1,2.5,2,3.7,6.3,3.4,9.8Z"/>
            <path class="st11" d="M467.9,46.3c-1.1-.8,2.8-4.9,3.3-5.9,0,0,0,0,0,0,1-1.5,2.3-2.9,2.9-4.7-2.3-1.6-4.7-1.9-1.9-5,1.2-1.4,3.6-4.7,5.1-5.8.4,0-.9,1.7-1.4,2.1-.9.9-4.5,5-4.4,6.1.8,1.1,2.4,1.2,3.1,2.3.3,1.2-2.3,4.3-3,5.3,0,0,0,0,0,0-1.2,1.6-2.4,3.2-3.4,5,.7.6,1.6.8,2.5,1.1,1,1.4-2.5-.3-2.8-.6Z"/>
            <path class="st11" d="M471.2,40.4s0,0,0,0c0,0,0,0,0,0Z"/>
            <path class="st11" d="M464.2,62.6c-.1-.1-.2-.3,0-.5,1.3-2.2,2.8-4.3,3.7-6.8-.6-.3-2.6-.8-1.8-1.9,1-1.7,2.2-3.2,3.3-4.7,0,0,0,0,0,0,.3-.3,1.8-3,1.8-1.4-1.6,2.2-3.3,4.3-4.7,6.6,1.1,1.1,2.9.2,1.5,2.9-.5.8-3.1,6.1-3.7,5.8Z"/>
            <path class="st11" d="M468.6,62.7c-.2-.8,3.7-2.6,4.4-3.2,5.3-3.5,10.4-7.5,14.5-12.7,9-9.4,5.6-24.4-7.8-21.9-.3,0-.7.5-.9,0-.1-1.1,4.1-1,4.8-1,12,1.5,11.7,15.8,4.1,23.5-4.8,6.1-11,10.5-17.2,14.4-.6.2-1.3,1.3-1.8.8Z"/>
          </g>
          <g>
            <path class="st11" d="M460.1,53.8c0,3.4-2.4,6.1-4,8.8-.2.4-.9-.7-1-1-.9-2.2-2.3-4.1-3.3-6.2-1.1-2.1-2.1-4.1-3-6.3-1.8-4.3-3.1-8.9-3.7-13.6-.1-1-.2-2.1-.3-3.1-1.4-17.5,16.9-22.6,24.8-8.4.2,0-.2.9-.5.7-.7,1.2-5.6,6.6-4.7,7.6.8,1.1,2.5,2.1,1.4,3.6-1.5,2.7-3.3,5.2-4.8,7.8.4.6,1.2.6,1.7,1.1.8,1.1-.7,2.3-1.2,3.2-.9,1.5-2,2.9-2.7,4.5.1.5.6.7.9,1,.1,0,.3,0,.4.2Z"/>
            <path class="st11" d="M455.9,62.7c-.3-.5.9-1.6,1.1-2.2.7-1.2,3.2-4.9,2.9-6.2-.3-.8-2.1-1.1-1.5-2.1,1.3-2.1,3-4,4.1-6.3.4-1.1-1.7-1-1.9-2,1.3-3.2,4.1-5.5,5.3-8.8-.4-1.2-2.5-1.8-2.2-3.3.2-.7,5.8-9.3,5.9-7.4-1.9,2.5-4,4.9-5.5,7.7.6,1.2,2.6,1.8,2.2,3.5-1.4,3-3.7,5.3-5.2,8.2.9.7,2.7,1.1,1.6,2.7-1.1,2.2-2.7,4-4,6.1,2.2,1.3,1.8,2.5.7,4.7-.6.8-3,5.9-3.7,5.4Z"/>
          </g>
        </g>
        <line class="st6" x1="416.5" y1="105.4" x2="428.6" y2="109.1"/>
        <path class="st3" d="M394.1,67.9v8.6h7.3v2.2h-7.3v8.7h-2.1v-8.7h-7.3v-2.2h7.3v-8.6h2.1Z"/>
        <g>
          <path class="st3" d="M147.9,110.2c0-1.2.1-3,.1-4.6v-21.5h2.8v11.2h0c1-2,2.8-3.3,5.3-3.3,3.9,0,6.6,3.7,6.6,9.1,0,6.3-3.5,9.5-7,9.5s-4.1-1-5.2-3.3h0v2.9h-2.6ZM150.9,103.1c0,.4,0,.8.1,1.2.5,2.2,2.2,3.8,4.3,3.8,3,0,4.7-2.8,4.7-6.8s-1.6-6.6-4.7-6.6-3.7,1.5-4.3,4c0,.4-.2.8-.2,1.3v3.2Z"/>
          <path class="st3" d="M180.6,101.2c0,6.6-4,9.4-7.8,9.4s-7.5-3.5-7.5-9.1,3.4-9.4,7.8-9.4,7.5,3.7,7.5,9.1ZM168.2,101.4c0,3.9,2,6.8,4.7,6.8s4.7-2.9,4.7-6.9-1.3-6.8-4.7-6.8-4.8,3.5-4.8,6.9Z"/>
          <path class="st3" d="M187,100.6h0c.4-.6.9-1.4,1.4-2l4.6-6.1h3.4l-6,7.3,6.9,10.5h-3.5l-5.4-8.5-1.5,1.8v6.7h-2.8v-26.1h2.8v16.4Z"/>
          <path class="st3" d="M199,106.9c.8.6,2.3,1.3,3.7,1.3,2.1,0,3-1.2,3-2.6s-.8-2.4-2.9-3.3c-2.8-1.1-4.1-2.9-4.1-5s2-5.2,5.4-5.2,3,.5,3.8,1.1l-.7,2.3c-.6-.4-1.7-1-3.2-1s-2.6,1.1-2.6,2.4.9,2.1,3,3c2.7,1.2,4.1,2.7,4.1,5.4s-2.1,5.3-5.8,5.3-3.3-.5-4.4-1.2l.7-2.5Z"/>
          <path class="st3" d="M215.6,87.3v5.1h4.1v2.5h-4.1v9.6c0,2.2.5,3.5,2.1,3.5s1.3-.1,1.6-.2v2.4c-.4.3-1.3.4-2.4.4s-2.4-.5-3.1-1.4c-.8-1-1.1-2.5-1.1-4.6v-9.7h-2.4v-2.5h2.4v-4.3l2.8-.8Z"/>
          <path class="st3" d="M231.5,110.2l-.2-2.2h0c-.9,1.4-2.6,2.6-4.8,2.6-3.2,0-4.8-2.5-4.8-5.1,0-4.3,3.4-6.6,9.4-6.6v-.4c0-1.5-.4-4.1-3.6-4.1s-3,.5-4.1,1.3l-.6-2.1c1.3-1,3.2-1.6,5.1-1.6,4.8,0,5.9,3.7,5.9,7.3v6.6c0,1.5,0,3,.3,4.3h-2.6ZM231.1,101.1c-3.1,0-6.6.5-6.6,4s1.2,3.1,2.7,3.1,3.3-1.5,3.8-3c0-.3.2-.7.2-1v-3.1Z"/>
          <path class="st3" d="M239.2,92.4l3.1,10c.5,1.6.9,3.1,1.3,4.6h0c.4-1.5.8-2.9,1.3-4.6l3-10h3l-6.1,17.8h-2.7l-5.9-17.8h3Z"/>
          <path class="st3" d="M254.9,101.9c0,4.4,2.5,6.2,5.4,6.2s3.3-.4,4.3-.9l.5,2.3c-1,.5-2.7,1.1-5.2,1.1-4.8,0-7.7-3.6-7.7-9s2.8-9.6,7.3-9.6,6.5,5.1,6.5,8.4,0,1.2,0,1.5h-11ZM263.3,99.6c0-2.1-.7-5.2-3.9-5.2s-4.1,3-4.4,5.2h8.3Z"/>
          <path class="st3" d="M269.5,98c0-2.1,0-3.9-.1-5.5h2.5v3.5h.2c.7-2.4,2.4-3.9,4.3-3.9s.5,0,.8.1v3c-.3,0-.6-.1-1-.1-2,0-3.4,1.7-3.8,4.1,0,.4-.1,1-.1,1.5v9.5h-2.8v-12.2Z"/>
        </g>
        <path class="st3" d="M301,67.5v8.6h7.3v2.2h-7.3v8.7h-2.1v-8.7h-7.3v-2.2h7.3v-8.6h2.1Z"/>
        <g>
          <path class="st3" d="M326.2,64.8c1.4-.3,3.5-.5,5.4-.5,3,0,4.9.6,6.3,2,1.1,1.1,1.7,2.8,1.7,4.7,0,3.3-1.8,5.4-4.1,6.3h0c1.7.8,2.7,2.5,3.2,5.1.7,3.5,1.2,5.8,1.7,6.8h-2.9c-.4-.7-.8-2.8-1.5-5.9-.6-3.4-1.8-4.7-4.4-4.8h-2.6v10.7h-2.8v-24.4ZM329,76h2.9c3,0,4.9-1.9,4.9-4.7s-2-4.6-5-4.6c-1.4,0-2.3.1-2.8.3v9Z"/>
          <path class="st3" d="M343.2,85.3c1.3.9,3.1,1.6,5,1.6,2.9,0,4.6-1.7,4.6-4.2s-1.2-3.6-4.1-4.9c-3.6-1.4-5.8-3.5-5.8-7s2.8-6.7,7-6.7,3.8.6,4.8,1.2l-.8,2.6c-.7-.4-2.2-1.2-4.1-1.2-3,0-4.1,2-4.1,3.7s1.3,3.5,4.3,4.8c3.7,1.6,5.6,3.6,5.6,7.3s-2.5,7.1-7.6,7.1-4.4-.7-5.6-1.6l.7-2.7Z"/>
        </g>
      </g>
    </g>
  </g>
</svg>