<?xml version="1.0" encoding="UTF-8"?>
<svg xmlns="http://www.w3.org/2000/svg" xmlns:xlink="http://www.w3.org/1999/xlink" viewBox="0 0 500 130">
  <defs>
    <style>
      .cls-1 {
        fill: #362328;
      }

      .cls-2 {
        fill: #231f20;
      }

      .cls-3 {
        fill: #d0d0d0;
      }

      .cls-4 {
        fill: url(#linear-gradient);
      }

      .cls-4, .cls-5 {
        mix-blend-mode: screen;
        opacity: .7;
      }

      .cls-6, .cls-7 {
        fill: #472b51;
      }

      .cls-8 {
        isolation: isolate;
      }

      .cls-9 {
        mix-blend-mode: multiply;
      }

      .cls-10 {
        fill: #e7e7e7;
      }

      .cls-11 {
        fill: #1d1d1d;
      }

      .cls-12 {
        fill: #b93432;
        stroke: #000;
        stroke-miterlimit: 10;
        stroke-width: .51px;
      }

      .cls-13 {
        fill: #fff;
      }

      .cls-7 {
        stroke: #362328;
        stroke-linecap: round;
        stroke-linejoin: round;
        stroke-width: 1.02px;
      }

      .cls-5 {
        fill: url(#linear-gradient-2);
      }
    </style>
    <linearGradient id="linear-gradient" x1="154.11" y1="98.38" x2="156.2" y2="102.21" gradientUnits="userSpaceOnUse">
      <stop offset="0" stop-color="#fff"/>
      <stop offset="1" stop-color="#6f6f6f"/>
    </linearGradient>
    <linearGradient id="linear-gradient-2" x1="156.93" y1="26.67" x2="156.93" y2="89.5" xlink:href="#linear-gradient"/>
  </defs>
  <g class="cls-8">
    <g id="Layer_1" data-name="Layer 1">
      <path d="M36.21,114.67h-7.5l-.44-7.86c-.08-3.51-.07-7.03-.13-10.54-.17-10.27-.11-20.46.29-30.71.08-1.96-.06-4.29.14-6.21.12-1.14.76-1.02,1.8-1.09,1.14-.08,2.77-.07,3.91,0,.54.03,1.72.03,1.88.58.2,1.9.13,3.8.21,5.7.62,14.8.55,29.64,0,44.42-.07,1.9-.07,3.81-.14,5.7Z"/>
      <path d="M29.86,46.16c-4.06-.5-5.41-4.57-5.63-8.14-.25-4.09.21-8.44,0-12.56l.73-14.06h1.73s.61,23.12.61,23.12c.61,1.11,1.85.85,1.99-.4.39-3.27-.18-7.09.29-10.38l.29-12.33h1.29c.03,1.94-.05,3.89,0,5.84.1,4.83.21,9.73.44,14.56.04.74-.09,1.61,0,2.32.17,1.46,1.85,1.47,2.03,0,.37-3.18-.15-6.77.29-9.95l.28-12.77h1.16s.57,22.72.57,22.72c.17,1.46,1.85,1.47,2.03,0,.3-2.55.22-5.87.29-8.51.12-4.74,0-9.48.28-14.21h1.3c.19,2.23.19,4.47.29,6.71.24,5.25.55,10.6.58,15.86.02,3.6.02,9.58-3.63,11.53-.69.37-1.5.46-2.15.88v11.18h-5.05v-11.4Z"/>
      <g>
        <path class="cls-2" d="M64.21,64.39v2.74h-10.42v-2.74h10.42Z"/>
        <path class="cls-2" d="M73.73,48.74h3.67v13.71h.13c.76-1.1,1.52-2.11,2.24-3.04l8.69-10.67h4.56l-10.29,12.06,11.09,16.36h-4.34l-9.36-13.96-2.7,3.12v10.84h-3.67v-28.43Z"/>
      </g>
      <path class="cls-10" d="M151.85,14.41h12.55c4.33,0,7.84,3.51,7.84,7.84v89.11c0,4.33-3.51,7.84-7.84,7.84h-12.55c-4.33,0-7.84-3.51-7.84-7.84V22.24c0-4.33,3.51-7.84,7.84-7.84Z"/>
      <path class="cls-3" d="M164.4,14.28c4.39,0,7.97,3.58,7.97,7.97v89.11c0,4.39-3.58,7.97-7.97,7.97h-12.55c-4.39,0-7.97-3.58-7.97-7.97V22.25c0-4.39,3.58-7.97,7.97-7.97"/>
      <path d="M151.85,14.54h12.55c4.25,0,7.71,3.45,7.71,7.71v89.11c0,4.25-3.45,7.71-7.71,7.71h-12.55c-4.25,0-7.71-3.45-7.71-7.71V22.25c0-4.26,3.45-7.71,7.71-7.71Z"/>
      <path class="cls-13" d="M170.6,110.39c0,4.23-3.14,7.65-7.02,7.65h-11.23c-3.87,0-7.02-3.43-7.02-7.65V23.4c0-4.23,3.14-7.65,7.02-7.65h11.23c3.87,0,7.02,3.43,7.02,7.65v86.99Z"/>
      <g>
        <path class="cls-13" d="M164.14,97.02V25.98c0-3.32-2.69-6.01-6.01-6.01s-6.01,2.69-6.01,6.01v71.04c-2.8,1.92-4.63,5.14-4.63,8.78,0,5.88,4.76,10.64,10.64,10.64s10.64-4.76,10.64-10.64c0-3.65-1.83-6.86-4.63-8.78Z"/>
        <path class="cls-3" d="M158.13,116.58c-5.94,0-10.77-4.83-10.77-10.77,0-3.53,1.73-6.83,4.63-8.85V25.98c0-3.39,2.76-6.14,6.14-6.14s6.14,2.76,6.14,6.14v70.97c2.9,2.02,4.63,5.32,4.63,8.85,0,5.94-4.83,10.77-10.77,10.77ZM158.13,20.1c-3.24,0-5.88,2.64-5.88,5.88v71.04s-.02.08-.06.11c-2.86,1.96-4.57,5.21-4.57,8.67,0,5.8,4.71,10.51,10.51,10.51s10.51-4.72,10.51-10.51c0-3.47-1.71-6.71-4.57-8.67-.04-.02-.06-.06-.06-.11V25.98c0-3.24-2.64-5.88-5.88-5.88Z"/>
      </g>
      <g>
        <path class="cls-10" d="M162.64,97.88V27.19c0-4.91-1.67-5.91-4.52-5.91-2.49,0-4.52,1.17-4.52,5.62v70.98c-2.75,1.57-4.61,4.53-4.61,7.93,0,5.04,4.09,9.13,9.12,9.13s9.13-4.09,9.13-9.13c0-3.4-1.86-6.36-4.61-7.93Z"/>
        <path class="cls-13" d="M158.13,115.06c-5.1,0-9.26-4.15-9.26-9.26,0-3.29,1.76-6.35,4.61-8V26.9c0-3.87,1.52-5.75,4.65-5.75,2.87,0,4.65,1.01,4.65,6.04v70.61c2.85,1.66,4.61,4.71,4.61,8,0,5.1-4.15,9.26-9.26,9.26ZM158.13,21.41c-2.99,0-4.39,1.74-4.39,5.49v71.05l-.07.04c-2.8,1.6-4.54,4.6-4.54,7.82,0,4.96,4.04,8.99,8.99,8.99s9-4.03,9-8.99c0-3.22-1.74-6.21-4.54-7.82l-.06-.04V27.19c0-4.83-1.61-5.78-4.39-5.78Z"/>
      </g>
      <path d="M162.22,98.49l.03-5.08h-8.21v5.08c-2.49,1.43-4.18,4.11-4.18,7.19,0,4.57,3.7,8.27,8.27,8.27s8.27-3.7,8.27-8.27c0-3.08-1.68-5.76-4.18-7.19Z"/>
      <path class="cls-4" d="M157.43,99.27s-3.88-.08-5.03,4.77c0,0-.07,1.53.72,1.32.78-.21.92-2.43,3.53-3.35,2.61-.91,3.85-.74,3.59-1.89-.2-.89-2.81-.85-2.81-.85Z"/>
      <path class="cls-9" d="M162.65,98.72V28.04c0-4.91-1.67-5.91-4.52-5.91-2.49,0-4.52,1.17-4.52,5.62v70.98c-2.75,1.57-4.61,4.53-4.61,7.93,0,5.04,4.09,9.13,9.12,9.13s9.13-4.09,9.13-9.13c0-3.4-1.86-6.36-4.61-7.93ZM164.33,106.21c-.82,3.78-11.01,5.66-12.61-.31-1.13-4.2,3.69-6.05,3.69-6.05,0,0-.07-70.3,0-72.91.06-2.61,1.7-3.07,1.7-3.07,0,0,.59-.62,2.22-.11,1.63.52,1.83,3.39,1.83,3.39v72.69c2.78,1.11,3.77,3.59,3.17,6.35Z"/>
      <path class="cls-5" d="M157.53,96.94c0,.62-.27,1.13-.6,1.13h0c-.33,0-.6-.51-.6-1.13V27.2c0-.62.27-1.13.6-1.13h0c.33,0,.6.51.6,1.13v69.74Z"/>
      <g>
        <g>
          <path class="cls-11" d="M162.88,95.89h1.59c.12,0,.22.13.22.29s-.1.29-.22.29h-1.59c-.12,0-.22-.13-.22-.29s.1-.29.22-.29Z"/>
          <path class="cls-11" d="M163.91,94.94h-1.03c-.07,0-.12-.07-.12-.15s.05-.15.12-.15h1.03c.07,0,.12.07.12.15s-.05.15-.12.15Z"/>
          <path class="cls-11" d="M163.91,93.56h-1.03c-.07,0-.12-.07-.12-.15s.05-.15.12-.15h1.03c.07,0,.12.07.12.15s-.05.15-.12.15Z"/>
          <path class="cls-11" d="M163.91,92.18h-1.03c-.07,0-.12-.06-.12-.15s.05-.15.12-.15h1.03c.07,0,.12.06.12.15s-.05.15-.12.15Z"/>
          <path class="cls-11" d="M163.91,90.8h-1.03c-.07,0-.12-.07-.12-.15s.05-.15.12-.15h1.03c.07,0,.12.07.12.15s-.05.15-.12.15Z"/>
          <path class="cls-11" d="M162.88,88.99h1.59c.12,0,.22.13.22.29s-.1.29-.22.29h-1.59c-.12,0-.22-.13-.22-.29s.1-.29.22-.29Z"/>
          <path class="cls-11" d="M163.91,88.04h-1.03c-.07,0-.12-.07-.12-.15s.05-.15.12-.15h1.03c.07,0,.12.07.12.15s-.05.15-.12.15Z"/>
          <path class="cls-11" d="M163.91,86.66h-1.03c-.07,0-.12-.07-.12-.15s.05-.15.12-.15h1.03c.07,0,.12.06.12.15s-.05.15-.12.15Z"/>
          <path class="cls-11" d="M163.91,85.28h-1.03c-.07,0-.12-.07-.12-.15s.05-.15.12-.15h1.03c.07,0,.12.07.12.15s-.05.15-.12.15Z"/>
          <path class="cls-11" d="M163.91,83.9h-1.03c-.07,0-.12-.07-.12-.15s.05-.15.12-.15h1.03c.07,0,.12.07.12.15s-.05.15-.12.15Z"/>
          <path class="cls-11" d="M162.88,82.09h1.59c.12,0,.22.13.22.29s-.1.29-.22.29h-1.59c-.12,0-.22-.13-.22-.29s.1-.29.22-.29Z"/>
          <path class="cls-11" d="M163.91,81.14h-1.03c-.07,0-.12-.06-.12-.15s.05-.15.12-.15h1.03c.07,0,.12.06.12.15s-.05.15-.12.15Z"/>
          <path class="cls-11" d="M163.91,79.76h-1.03c-.07,0-.12-.07-.12-.15s.05-.15.12-.15h1.03c.07,0,.12.07.12.15s-.05.15-.12.15Z"/>
          <path class="cls-11" d="M163.91,78.38h-1.03c-.07,0-.12-.07-.12-.15s.05-.15.12-.15h1.03c.07,0,.12.07.12.15s-.05.15-.12.15Z"/>
          <path class="cls-11" d="M163.91,77h-1.03c-.07,0-.12-.07-.12-.15s.05-.15.12-.15h1.03c.07,0,.12.07.12.15s-.05.15-.12.15Z"/>
          <path class="cls-11" d="M162.88,75.19h1.59c.12,0,.22.13.22.29s-.1.29-.22.29h-1.59c-.12,0-.22-.13-.22-.29s.1-.29.22-.29Z"/>
          <path class="cls-11" d="M163.91,74.25h-1.03c-.07,0-.12-.07-.12-.15s.05-.15.12-.15h1.03c.07,0,.12.07.12.15s-.05.15-.12.15Z"/>
          <path class="cls-11" d="M163.91,72.87h-1.03c-.07,0-.12-.07-.12-.15s.05-.15.12-.15h1.03c.07,0,.12.07.12.15s-.05.15-.12.15Z"/>
          <path class="cls-11" d="M163.91,71.49h-1.03c-.07,0-.12-.06-.12-.15s.05-.15.12-.15h1.03c.07,0,.12.07.12.15s-.05.15-.12.15Z"/>
          <path class="cls-11" d="M163.91,70.11h-1.03c-.07,0-.12-.06-.12-.15s.05-.15.12-.15h1.03c.07,0,.12.06.12.15s-.05.15-.12.15Z"/>
          <path class="cls-11" d="M162.88,68.29h1.59c.12,0,.22.13.22.29s-.1.29-.22.29h-1.59c-.12,0-.22-.13-.22-.29s.1-.29.22-.29Z"/>
          <path class="cls-11" d="M163.91,67.35h-1.03c-.07,0-.12-.06-.12-.15s.05-.15.12-.15h1.03c.07,0,.12.07.12.15s-.05.15-.12.15Z"/>
          <path class="cls-11" d="M163.91,65.97h-1.03c-.07,0-.12-.07-.12-.15s.05-.15.12-.15h1.03c.07,0,.12.07.12.15s-.05.15-.12.15Z"/>
          <path class="cls-11" d="M163.91,64.59h-1.03c-.07,0-.12-.07-.12-.15s.05-.15.12-.15h1.03c.07,0,.12.07.12.15s-.05.15-.12.15Z"/>
          <path class="cls-11" d="M163.91,63.21h-1.03c-.07,0-.12-.07-.12-.15s.05-.15.12-.15h1.03c.07,0,.12.07.12.15s-.05.15-.12.15Z"/>
          <path class="cls-11" d="M162.88,61.39h1.59c.12,0,.22.13.22.29s-.1.29-.22.29h-1.59c-.12,0-.22-.13-.22-.29s.1-.29.22-.29Z"/>
          <path class="cls-11" d="M163.91,60.45h-1.03c-.07,0-.12-.07-.12-.15s.05-.15.12-.15h1.03c.07,0,.12.07.12.15s-.05.15-.12.15Z"/>
          <path class="cls-11" d="M163.91,59.07h-1.03c-.07,0-.12-.07-.12-.15s.05-.15.12-.15h1.03c.07,0,.12.07.12.15s-.05.15-.12.15Z"/>
          <path class="cls-11" d="M163.91,57.69h-1.03c-.07,0-.12-.07-.12-.15s.05-.15.12-.15h1.03c.07,0,.12.06.12.15s-.05.15-.12.15Z"/>
          <path class="cls-11" d="M163.91,56.31h-1.03c-.07,0-.12-.07-.12-.15s.05-.15.12-.15h1.03c.07,0,.12.07.12.15s-.05.15-.12.15Z"/>
          <path class="cls-11" d="M162.88,54.5h1.59c.12,0,.22.13.22.29s-.1.29-.22.29h-1.59c-.12,0-.22-.13-.22-.29s.1-.29.22-.29Z"/>
          <path class="cls-11" d="M162.88,53.26h1.03c.07,0,.12.07.12.15s-.05.15-.12.15h-1.03c-.07,0-.12-.07-.12-.15s.05-.15.12-.15Z"/>
          <path class="cls-11" d="M162.88,51.88h1.03c.07,0,.12.07.12.15s-.05.15-.12.15h-1.03c-.07,0-.12-.07-.12-.15s.05-.15.12-.15Z"/>
          <path class="cls-11" d="M162.88,50.5h1.03c.07,0,.12.06.12.15s-.05.15-.12.15h-1.03c-.07,0-.12-.07-.12-.15s.05-.15.12-.15Z"/>
          <path class="cls-11" d="M162.88,49.12h1.03c.07,0,.12.07.12.15s-.05.15-.12.15h-1.03c-.07,0-.12-.07-.12-.15s.05-.15.12-.15Z"/>
          <path class="cls-11" d="M163.91,46.65h-1.03c-.07,0-.12-.07-.12-.15s.05-.15.12-.15h1.03c.07,0,.12.06.12.15s-.05.15-.12.15Z"/>
          <path class="cls-11" d="M163.91,45.27h-1.03c-.07,0-.12-.07-.12-.15s.05-.15.12-.15h1.03c.07,0,.12.07.12.15s-.05.15-.12.15Z"/>
          <path class="cls-11" d="M163.91,43.89h-1.03c-.07,0-.12-.07-.12-.15s.05-.15.12-.15h1.03c.07,0,.12.06.12.15s-.05.15-.12.15Z"/>
          <path class="cls-11" d="M163.91,42.51h-1.03c-.07,0-.12-.07-.12-.15s.05-.15.12-.15h1.03c.07,0,.12.07.12.15s-.05.15-.12.15Z"/>
          <path class="cls-11" d="M162.88,40.7h1.59c.12,0,.22.13.22.29s-.1.29-.22.29h-1.59c-.12,0-.22-.13-.22-.29s.1-.29.22-.29Z"/>
          <path class="cls-11" d="M162.88,47.6h1.59c.12,0,.22.13.22.29s-.1.29-.22.29h-1.59c-.12,0-.22-.13-.22-.29s.1-.29.22-.29Z"/>
          <path class="cls-11" d="M163.91,39.75h-1.03c-.07,0-.12-.07-.12-.15s.05-.15.12-.15h1.03c.07,0,.12.07.12.15s-.05.15-.12.15Z"/>
          <path class="cls-11" d="M163.91,38.37h-1.03c-.07,0-.12-.07-.12-.15s.05-.15.12-.15h1.03c.07,0,.12.07.12.15s-.05.15-.12.15Z"/>
          <path class="cls-11" d="M163.91,36.99h-1.03c-.07,0-.12-.07-.12-.15s.05-.15.12-.15h1.03c.07,0,.12.07.12.15s-.05.15-.12.15Z"/>
          <path class="cls-11" d="M163.91,35.61h-1.03c-.07,0-.12-.07-.12-.15s.05-.15.12-.15h1.03c.07,0,.12.06.12.15s-.05.15-.12.15Z"/>
          <path class="cls-11" d="M163.91,31.47h-1.03c-.07,0-.12-.07-.12-.15s.05-.15.12-.15h1.03c.07,0,.12.07.12.15s-.05.15-.12.15Z"/>
          <path class="cls-11" d="M163.91,28.71h-1.03c-.07,0-.12-.07-.12-.15s.05-.15.12-.15h1.03c.07,0,.12.07.12.15s-.05.15-.12.15Z"/>
          <path class="cls-11" d="M162.88,33.8h1.59c.12,0,.22.13.22.29s-.1.29-.22.29h-1.59c-.12,0-.22-.13-.22-.29s.1-.29.22-.29Z"/>
          <path class="cls-11" d="M162.88,26.9h1.59c.12,0,.22.13.22.29s-.1.29-.22.29h-1.59c-.12,0-.22-.13-.22-.29s.1-.29.22-.29Z"/>
          <path class="cls-11" d="M163.91,32.85h-1.03c-.07,0-.12-.07-.12-.15s.05-.15.12-.15h1.03c.07,0,.12.07.12.15s-.05.15-.12.15Z"/>
          <path class="cls-11" d="M163.91,30.09h-1.03c-.07,0-.12-.07-.12-.15s.05-.15.12-.15h1.03c.07,0,.12.07.12.15s-.05.15-.12.15Z"/>
        </g>
        <path d="M167.55,94.67c.14,0,.25.03.34.1.09.07.16.15.22.26.06.11.1.23.12.37.02.14.03.28.03.42s-.01.28-.03.42c-.02.14-.06.26-.12.37-.06.11-.13.19-.22.26-.09.07-.2.1-.34.1s-.25-.03-.34-.1c-.09-.07-.16-.15-.22-.26-.05-.11-.09-.23-.12-.37-.02-.14-.03-.28-.03-.42s.01-.28.03-.42c.02-.14.06-.26.12-.37.06-.11.13-.2.22-.26.09-.07.21-.1.34-.1ZM167.55,94.86c-.1,0-.18.03-.24.09-.06.06-.11.14-.15.23-.04.09-.06.2-.08.31-.01.11-.02.23-.02.33s0,.22.02.33c.01.11.04.22.08.31.04.09.09.17.15.23.06.06.15.09.24.09s.17-.03.24-.09c.06-.06.11-.13.15-.23.04-.09.06-.19.08-.31.02-.11.02-.22.02-.33s0-.22-.02-.33c-.02-.11-.04-.22-.08-.31-.04-.09-.09-.17-.15-.23-.06-.06-.14-.09-.24-.09Z"/>
        <g>
          <path d="M167.04,89.47h-.16v-1.4l-.29.25-.1-.11.41-.33h.14v1.6Z"/>
          <path d="M168.08,87.83c.1,0,.18.02.25.07.07.05.12.11.16.19.04.08.07.17.09.27.02.1.03.2.03.31s0,.21-.03.31c-.02.1-.05.19-.09.27-.04.08-.09.14-.16.19-.07.05-.15.07-.25.07s-.18-.02-.25-.07c-.07-.05-.12-.11-.16-.19-.04-.08-.07-.17-.09-.27-.02-.1-.02-.2-.02-.31s0-.21.02-.31c.02-.1.04-.19.09-.27.04-.08.09-.14.16-.19.07-.05.15-.07.25-.07ZM168.08,87.97c-.07,0-.13.02-.18.07-.05.04-.08.1-.11.17-.03.07-.05.14-.06.23-.01.08-.02.17-.02.25s0,.16.02.24c.01.08.03.16.06.23.03.07.06.12.11.16.05.04.11.06.18.06s.13-.02.17-.06c.05-.04.08-.1.11-.16.03-.07.05-.14.06-.23.01-.08.02-.16.02-.24s0-.16-.02-.25c-.01-.08-.03-.16-.06-.23-.03-.07-.06-.12-.11-.17-.05-.04-.1-.07-.17-.07Z"/>
        </g>
        <g>
          <path d="M167.44,82.63h-1.02v-.17l.66-.66s.05-.05.07-.08c.02-.03.04-.06.06-.09.02-.03.03-.06.04-.1.01-.03.02-.07.02-.11,0-.05,0-.09-.02-.13-.02-.04-.04-.07-.07-.1-.03-.03-.06-.05-.1-.06-.04-.02-.08-.02-.12-.02-.09,0-.16.03-.22.08-.06.05-.1.12-.11.2l-.16-.03c.01-.06.03-.11.06-.16.03-.05.06-.09.11-.13.04-.03.09-.06.15-.08.05-.02.11-.03.18-.03s.13,0,.18.03c.06.02.11.05.15.08.04.04.08.08.1.14.03.06.04.12.04.19,0,.05,0,.1-.02.14-.01.04-.03.09-.06.12-.02.04-.05.08-.08.11-.03.04-.06.07-.1.11l-.58.57h.85v.14Z"/>
          <path d="M168.16,80.99c.1,0,.18.02.25.07.07.05.12.11.16.19.04.08.07.17.09.27.02.1.03.2.03.31s0,.21-.03.31c-.02.1-.05.19-.09.27-.04.08-.09.14-.16.19-.07.05-.15.07-.25.07s-.19-.02-.25-.07c-.07-.05-.12-.11-.16-.19-.04-.08-.07-.17-.09-.27-.02-.1-.02-.2-.02-.31s0-.21.02-.31c.02-.1.04-.19.09-.27.04-.08.1-.14.16-.19.07-.05.15-.07.25-.07ZM168.16,81.13c-.07,0-.13.02-.18.07-.05.04-.08.1-.11.17-.03.07-.05.14-.06.23-.01.08-.02.17-.02.25s0,.16.02.24c.01.08.03.16.06.23.03.07.06.12.11.16.05.04.11.07.18.07s.13-.02.17-.07c.05-.04.08-.1.11-.16.03-.07.05-.14.06-.23.01-.08.02-.16.02-.24s0-.16-.02-.25c-.01-.08-.03-.16-.06-.23-.03-.07-.06-.12-.11-.17-.05-.04-.1-.07-.17-.07Z"/>
        </g>
        <g>
          <path d="M166.79,74.89h.07c.05,0,.1,0,.14-.02.05-.01.08-.03.12-.05.03-.02.06-.05.08-.09.02-.04.03-.08.03-.13,0-.05,0-.09-.03-.12-.02-.04-.04-.07-.07-.1-.03-.03-.06-.05-.1-.06-.04-.01-.08-.02-.12-.02-.07,0-.13.02-.18.05-.05.03-.09.08-.13.14l-.14-.07c.05-.09.11-.15.19-.19.08-.04.16-.06.26-.06.06,0,.12,0,.18.03.06.02.11.05.15.08.04.04.08.08.1.13.02.05.04.11.04.18,0,.09-.03.17-.08.24-.05.06-.12.11-.2.13h0c.09.02.17.07.23.14.06.07.09.16.09.27,0,.08-.01.14-.04.21-.03.06-.06.11-.11.15-.05.04-.1.07-.16.1-.06.02-.13.03-.2.03-.12,0-.22-.03-.31-.08-.09-.06-.15-.14-.2-.24l.15-.06c.03.08.07.14.14.18.06.04.14.06.22.06.05,0,.09,0,.13-.02.04-.02.08-.04.11-.07.03-.03.06-.06.08-.11.02-.04.03-.09.03-.14,0-.06-.01-.11-.03-.15-.02-.04-.05-.07-.09-.1-.04-.03-.08-.04-.13-.06-.05-.01-.1-.02-.15-.02h-.07v-.14Z"/>
          <path d="M168.16,74.15c.1,0,.18.02.25.07.07.05.12.11.16.19.04.08.07.17.09.27.02.1.03.2.03.31s0,.21-.03.31c-.02.1-.05.19-.09.27-.04.08-.09.14-.16.19-.07.05-.15.07-.25.07s-.18-.02-.25-.07c-.07-.05-.12-.11-.16-.19-.04-.08-.07-.17-.09-.27-.02-.1-.02-.2-.02-.31s0-.21.02-.31c.02-.1.04-.19.09-.27.04-.08.09-.14.16-.19.07-.05.15-.07.25-.07ZM168.16,74.29c-.07,0-.13.02-.18.07-.05.04-.08.1-.11.17-.03.07-.05.14-.06.23-.01.08-.02.17-.02.25s0,.16.02.24c.01.08.03.16.06.23.03.07.06.12.11.16.05.04.11.06.18.06s.13-.02.18-.06c.05-.04.08-.1.11-.16.03-.07.05-.14.06-.23.01-.08.02-.16.02-.24s0-.16-.02-.25c-.01-.08-.03-.16-.06-.23-.03-.07-.06-.12-.11-.17-.05-.04-.11-.07-.18-.07Z"/>
        </g>
        <g>
          <path d="M167.3,68.42h.24v.14h-.24v.39h-.16v-.39h-.73v-.16l.68-1.06h.21v1.07ZM167.14,67.54h0l-.56.89h.56v-.89Z"/>
          <path d="M168.17,67.31c.1,0,.18.02.25.07.07.05.12.11.16.19.04.08.07.17.09.27.02.1.03.2.03.31s0,.21-.03.31c-.02.1-.05.19-.09.27-.04.08-.09.14-.16.19-.07.05-.15.07-.25.07s-.18-.02-.25-.07c-.07-.05-.12-.11-.16-.19-.04-.08-.07-.17-.09-.27-.02-.1-.03-.2-.03-.31s0-.21.03-.31c.02-.1.04-.19.09-.27.04-.08.09-.14.16-.19.07-.05.15-.07.25-.07ZM168.17,67.45c-.07,0-.13.02-.18.07-.05.04-.08.1-.11.17-.03.07-.05.14-.06.23-.01.08-.02.16-.02.24s0,.16.02.24c.01.08.03.16.06.23s.06.12.11.16c.05.04.11.06.18.06s.13-.02.17-.06c.05-.04.08-.1.11-.16s.05-.14.06-.23c.01-.08.02-.16.02-.24s0-.16-.02-.24c-.01-.08-.03-.16-.06-.23-.03-.07-.06-.12-.11-.17-.05-.04-.1-.07-.17-.07Z"/>
        </g>
        <g>
          <path d="M167.37,60.66h-.67v.49s.06-.02.1-.03c.04,0,.08,0,.11,0,.07,0,.14.01.21.04.06.02.12.06.16.1.05.05.08.1.11.16.03.06.04.13.04.2,0,.08-.01.15-.04.21-.03.07-.06.12-.11.17-.05.05-.1.08-.17.11-.07.03-.14.04-.22.04-.12,0-.21-.03-.29-.08-.08-.05-.14-.12-.18-.21l.15-.06c.03.07.07.12.13.16.06.04.12.06.19.06.05,0,.1,0,.15-.03.05-.02.09-.05.12-.08.03-.03.06-.07.08-.12.02-.05.03-.1.03-.15,0-.06-.01-.11-.03-.16-.02-.05-.05-.09-.08-.12-.03-.03-.08-.06-.13-.08-.05-.02-.1-.03-.16-.03s-.11,0-.17.02c-.06.02-.11.04-.16.06l.02-.82h.82v.14Z"/>
          <path d="M168.15,60.48c.1,0,.18.02.25.07.07.05.12.11.16.19.04.08.07.17.09.27.02.1.03.2.03.31s0,.21-.03.31c-.02.1-.05.19-.09.27-.04.08-.09.14-.16.19-.07.05-.15.07-.25.07s-.18-.02-.25-.07c-.07-.05-.12-.11-.16-.19-.04-.08-.07-.17-.09-.27-.02-.1-.02-.2-.02-.31s0-.21.02-.31c.02-.1.04-.19.09-.27s.1-.14.16-.19c.07-.05.15-.07.25-.07ZM168.15,60.61c-.07,0-.13.02-.18.07-.05.04-.08.1-.11.17-.03.07-.05.14-.06.23-.01.08-.02.17-.02.25s0,.16.02.24c.01.08.03.16.06.22.03.07.06.12.11.17.05.04.11.06.18.06s.13-.02.18-.06c.05-.04.08-.1.11-.17.03-.07.05-.14.06-.22.01-.08.02-.16.02-.24s0-.16-.02-.25c-.01-.08-.03-.16-.06-.23-.03-.07-.06-.12-.11-.17-.05-.04-.11-.07-.18-.07Z"/>
        </g>
        <g>
          <path d="M166.75,54.37h0s.06-.03.1-.04c.04-.01.09-.02.13-.02.07,0,.13.01.19.04.06.02.11.06.16.1.04.04.08.1.1.16.02.06.04.13.04.2s-.01.14-.04.21c-.03.06-.06.11-.11.16-.05.04-.1.08-.17.1-.06.03-.13.04-.21.04s-.14-.01-.21-.04c-.06-.02-.12-.06-.17-.1-.05-.04-.08-.1-.11-.16-.03-.06-.04-.13-.04-.21,0-.08.01-.16.04-.23.03-.07.06-.14.1-.2l.44-.7h.19l-.45.7ZM166.59,54.81c0,.05,0,.1.02.14.02.05.04.08.07.12.03.03.07.06.11.08.04.02.09.03.14.03s.1,0,.14-.03c.04-.02.08-.04.11-.08.03-.03.06-.07.07-.12.02-.04.03-.09.03-.14s0-.1-.03-.14c-.02-.04-.04-.08-.07-.12-.03-.03-.07-.06-.11-.08-.04-.02-.09-.03-.15-.03s-.1,0-.15.03c-.04.02-.08.04-.11.08-.03.03-.05.07-.07.12-.02.04-.02.09-.02.14Z"/>
          <path d="M168.15,53.64c.1,0,.18.02.25.07.07.05.12.11.16.19.04.08.07.17.09.27.02.1.03.2.03.31s0,.21-.03.31c-.02.1-.05.19-.09.27-.04.08-.09.14-.16.19-.07.05-.15.07-.25.07s-.18-.02-.25-.07c-.07-.05-.12-.11-.16-.19-.04-.08-.07-.17-.09-.27-.02-.1-.03-.2-.03-.31s0-.21.03-.31c.02-.1.04-.19.09-.27.04-.08.09-.14.16-.19.07-.05.15-.07.25-.07ZM168.15,53.77c-.07,0-.13.02-.18.06-.05.04-.08.1-.11.17-.03.07-.05.14-.06.23-.01.08-.02.17-.02.25s0,.16.02.24c.01.08.03.16.06.22.03.07.06.12.11.17.05.04.11.06.18.06s.13-.02.17-.06c.05-.04.08-.1.11-.17.03-.07.05-.14.06-.22.01-.08.02-.16.02-.24s0-.16-.02-.25c-.01-.08-.03-.16-.06-.23-.03-.07-.06-.12-.11-.17-.05-.04-.1-.06-.17-.06Z"/>
        </g>
        <g>
          <path d="M167.4,46.99l-.64,1.45h-.18l.66-1.45h-.78v-.15h.95v.15Z"/>
          <path d="M168.13,46.8c.1,0,.18.03.25.07.07.05.12.11.16.19.04.08.07.17.09.27.02.1.03.2.03.31s0,.21-.03.31c-.02.1-.05.19-.09.27-.04.08-.09.14-.16.19-.07.05-.15.07-.25.07s-.19-.02-.25-.07c-.07-.05-.12-.11-.16-.19-.04-.08-.07-.17-.09-.27-.02-.1-.02-.2-.02-.31s0-.21.02-.31c.02-.1.04-.19.09-.27.04-.08.09-.14.16-.19.07-.05.15-.07.25-.07ZM168.13,46.94c-.07,0-.13.02-.18.06-.05.04-.08.1-.11.17-.03.07-.05.14-.06.23-.01.08-.02.16-.02.25s0,.16.02.24c.01.08.03.16.06.23.03.07.06.12.11.17.05.04.11.06.18.06s.13-.02.17-.06c.05-.04.08-.1.11-.17.03-.07.05-.14.06-.23.01-.08.02-.16.02-.24s0-.16-.02-.25c-.01-.08-.03-.16-.06-.23-.03-.07-.06-.12-.11-.17-.05-.04-.1-.06-.17-.06Z"/>
        </g>
        <g>
          <path d="M167.15,40.75c.09.03.16.08.22.15.06.08.09.17.09.28,0,.07-.01.13-.04.19-.03.06-.06.1-.11.14-.05.04-.1.07-.16.09-.06.02-.13.03-.2.03s-.13-.01-.2-.03c-.06-.02-.12-.05-.16-.09-.05-.04-.08-.09-.11-.14-.03-.06-.04-.12-.04-.19,0-.05,0-.11.02-.15.01-.05.04-.09.06-.13.03-.04.06-.07.1-.09.04-.03.08-.05.12-.06h0s-.07-.03-.1-.06c-.03-.02-.05-.05-.08-.08-.02-.03-.04-.07-.05-.11-.01-.04-.02-.08-.02-.12,0-.06.01-.12.04-.18.02-.05.06-.1.1-.13.04-.04.09-.07.14-.09.05-.02.11-.03.17-.03s.12,0,.17.03c.06.02.1.05.14.09.04.04.07.08.1.13.02.05.04.11.04.18,0,.04,0,.08-.02.12-.01.04-.03.07-.05.11-.02.03-.05.06-.08.08-.03.02-.06.04-.1.05h0ZM166.59,41.16s0,.09.02.14c.02.04.04.08.07.11.03.03.07.05.11.07.04.02.09.03.14.03s.1,0,.14-.03c.04-.02.08-.04.11-.07.03-.03.05-.07.07-.11.02-.04.03-.09.03-.14s0-.09-.03-.13c-.02-.04-.04-.08-.07-.11-.03-.03-.07-.05-.11-.07-.04-.02-.09-.02-.14-.02s-.1,0-.14.02c-.04.02-.08.04-.11.07-.03.03-.06.07-.07.11-.02.04-.02.08-.02.13ZM166.65,40.39s0,.08.02.12c.02.03.04.06.06.09.03.03.06.05.09.06.04.01.07.02.11.02s.08,0,.11-.02c.03-.01.07-.03.09-.06.03-.03.05-.06.06-.09.01-.03.02-.07.02-.12s0-.08-.02-.12c-.02-.04-.04-.07-.06-.1-.03-.03-.06-.05-.09-.06-.04-.02-.07-.02-.12-.02s-.08,0-.12.02c-.04.02-.07.04-.09.06-.03.03-.05.06-.06.1-.02.04-.02.08-.02.12Z"/>
          <path d="M168.14,39.96c.1,0,.18.02.25.07.07.05.12.11.16.19.04.08.07.17.09.27.02.1.02.2.02.31s0,.21-.02.31c-.02.1-.05.19-.09.27-.04.08-.1.14-.16.19-.07.05-.15.07-.25.07s-.18-.03-.25-.07c-.07-.05-.12-.11-.16-.19-.04-.08-.07-.17-.09-.27-.02-.1-.03-.2-.03-.31s0-.21.03-.31c.02-.1.04-.19.09-.27.04-.08.1-.14.16-.19.07-.05.15-.07.25-.07ZM168.14,40.1c-.07,0-.13.02-.18.07-.05.04-.08.1-.11.17-.03.07-.05.14-.06.23-.01.08-.02.17-.02.25s0,.16.02.24c.01.08.03.16.06.22.03.07.06.12.11.17.05.04.11.06.18.06s.13-.02.18-.06c.05-.04.08-.1.11-.17.03-.07.05-.14.06-.22.01-.08.02-.16.02-.24s0-.16-.02-.25c-.01-.08-.03-.16-.06-.23-.03-.07-.06-.12-.11-.17-.05-.04-.11-.07-.18-.07Z"/>
        </g>
        <g>
          <path d="M167.15,34.06h0s-.06.03-.1.04c-.04.01-.09.02-.13.02-.07,0-.13-.01-.19-.04-.06-.02-.11-.06-.15-.1-.04-.04-.08-.1-.1-.16-.02-.06-.04-.13-.04-.2s.01-.14.04-.21c.03-.06.06-.11.11-.16.05-.04.1-.08.17-.1.06-.03.13-.04.21-.04s.15.01.21.04c.06.02.12.06.16.1.05.04.08.1.11.16.03.06.04.13.04.21,0,.08-.02.16-.04.23-.03.07-.06.14-.1.2l-.44.7h-.19l.45-.7ZM167.31,33.62c0-.05,0-.1-.03-.14-.02-.04-.04-.08-.07-.12-.03-.03-.07-.06-.11-.08-.04-.02-.09-.03-.15-.03s-.1,0-.14.03c-.04.02-.08.05-.11.08-.03.03-.06.07-.07.12-.02.04-.03.09-.03.14s0,.1.02.14c.02.04.04.08.07.12.03.03.07.06.11.07.04.02.09.03.15.03s.1,0,.15-.03c.04-.02.08-.04.11-.07.03-.03.05-.07.07-.12.02-.04.02-.09.02-.14Z"/>
          <path d="M168.14,33.12c.1,0,.18.02.25.07.07.05.12.11.16.19.04.08.07.17.09.27.02.1.03.2.03.31s0,.21-.03.31c-.02.1-.05.19-.09.27-.04.08-.09.14-.16.19-.07.05-.15.07-.25.07s-.18-.02-.25-.07c-.07-.05-.12-.11-.16-.19-.04-.08-.07-.17-.09-.27-.02-.1-.02-.2-.02-.31s0-.21.02-.31c.02-.1.05-.19.09-.27.04-.08.09-.14.16-.19.07-.05.15-.07.25-.07ZM168.14,33.26c-.07,0-.13.02-.18.07-.05.04-.08.1-.11.17-.03.07-.05.14-.06.23-.01.08-.02.17-.02.25s0,.16.02.24c0,.08.03.16.06.23.03.07.06.12.11.17.05.04.11.06.18.06s.13-.02.18-.06c.05-.04.08-.1.11-.17.03-.07.05-.14.06-.23.01-.08.02-.16.02-.24s0-.16-.02-.25c-.01-.08-.03-.16-.06-.23-.03-.07-.06-.12-.11-.17-.05-.04-.11-.07-.18-.07Z"/>
        </g>
        <g>
          <path d="M166.44,27.92h-.16v-1.4l-.29.25-.1-.11.41-.33h.14v1.6Z"/>
          <path d="M167.49,26.28c.1,0,.18.02.25.07.07.05.12.11.16.19.04.08.07.17.09.27.02.1.03.2.03.31s0,.21-.03.31c-.02.1-.05.19-.09.27-.04.08-.09.14-.16.19-.07.05-.15.07-.25.07s-.19-.02-.25-.07c-.07-.05-.12-.11-.16-.19-.04-.08-.07-.17-.09-.27-.02-.1-.02-.2-.02-.31s0-.21.02-.31c.02-.1.05-.19.09-.27.04-.08.1-.14.16-.19.07-.05.15-.07.25-.07ZM167.49,26.42c-.07,0-.13.02-.18.07-.05.04-.08.1-.11.17-.03.07-.05.14-.06.23-.01.08-.02.17-.02.25s0,.16.02.24c0,.08.03.16.06.23.03.07.06.12.11.16.05.04.11.07.18.07s.13-.02.17-.07c.05-.04.08-.1.11-.16.03-.07.05-.14.06-.23.01-.08.02-.16.02-.24s0-.16-.02-.25c-.01-.08-.03-.16-.06-.23-.03-.07-.06-.12-.11-.17-.05-.04-.11-.07-.17-.07Z"/>
          <path d="M168.68,26.28c.1,0,.18.02.25.07.07.05.12.11.16.19.04.08.07.17.09.27.02.1.03.2.03.31s0,.21-.03.31c-.02.1-.05.19-.09.27-.04.08-.09.14-.16.19-.07.05-.15.07-.25.07s-.18-.02-.25-.07c-.07-.05-.12-.11-.16-.19-.04-.08-.07-.17-.09-.27-.02-.1-.02-.2-.02-.31s0-.21.02-.31c.02-.1.05-.19.09-.27.04-.08.09-.14.16-.19.07-.05.15-.07.25-.07ZM168.68,26.42c-.07,0-.13.02-.18.07-.05.04-.08.1-.11.17-.03.07-.05.14-.06.23-.01.08-.02.17-.02.25s0,.16.02.24c0,.08.03.16.06.23.03.07.06.12.11.16.05.04.11.07.18.07s.13-.02.17-.07c.05-.04.08-.1.11-.16.03-.07.05-.14.06-.23.01-.08.02-.16.02-.24s0-.16-.02-.25c-.01-.08-.03-.16-.06-.23-.03-.07-.06-.12-.11-.17-.05-.04-.1-.07-.17-.07Z"/>
        </g>
      </g>
      <path class="cls-2" d="M124.22,53.48v9.91h9.53v2.53h-9.53v10h-2.7v-10h-9.53v-2.53h9.53v-9.91h2.7Z"/>
      <g>
        <path class="cls-2" d="M204.37,63.64v2.37h-9.02v-2.37h9.02Z"/>
        <path class="cls-2" d="M222.4,71.01c.91.58,3.03,1.5,5.26,1.5,4.12,0,5.4-2.63,5.37-4.6-.04-3.32-3.03-4.75-6.13-4.75h-1.79v-2.41h1.79c2.34,0,5.29-1.21,5.29-4.02,0-1.9-1.2-3.58-4.16-3.58-1.9,0-3.72.84-4.75,1.57l-.84-2.34c1.24-.91,3.65-1.83,6.21-1.83,4.67,0,6.79,2.77,6.79,5.66,0,2.45-1.46,4.53-4.38,5.58v.07c2.92.58,5.29,2.77,5.29,6.1,0,3.8-2.96,7.12-8.65,7.12-2.66,0-5-.84-6.17-1.61l.88-2.48Z"/>
        <path class="cls-2" d="M248.68,71.41c.95.62,2.63,1.28,4.23,1.28,2.34,0,3.43-1.17,3.43-2.63,0-1.53-.91-2.37-3.29-3.25-3.18-1.13-4.67-2.88-4.67-5,0-2.85,2.3-5.18,6.1-5.18,1.79,0,3.36.51,4.34,1.09l-.8,2.34c-.69-.44-1.97-1.02-3.61-1.02-1.9,0-2.96,1.09-2.96,2.41,0,1.46,1.06,2.12,3.36,2.99,3.07,1.17,4.63,2.7,4.63,5.33,0,3.1-2.41,5.29-6.61,5.29-1.93,0-3.72-.47-4.96-1.21l.8-2.45Z"/>
        <path class="cls-2" d="M267.14,52.07c.04,1.1-.77,1.97-2.04,1.97-1.13,0-1.93-.88-1.93-1.97s.84-2.01,2.01-2.01,1.97.88,1.97,2.01ZM263.56,74.7v-17.67h3.21v17.67h-3.21Z"/>
        <path class="cls-2" d="M271.67,71.41c.95.62,2.63,1.28,4.23,1.28,2.34,0,3.43-1.17,3.43-2.63,0-1.53-.91-2.37-3.29-3.25-3.18-1.13-4.67-2.88-4.67-5,0-2.85,2.3-5.18,6.09-5.18,1.79,0,3.36.51,4.34,1.09l-.8,2.34c-.69-.44-1.97-1.02-3.61-1.02-1.9,0-2.96,1.09-2.96,2.41,0,1.46,1.06,2.12,3.36,2.99,3.07,1.17,4.64,2.7,4.64,5.33,0,3.1-2.41,5.29-6.61,5.29-1.93,0-3.72-.47-4.96-1.21l.8-2.45Z"/>
        <path class="cls-2" d="M290.42,51.96v5.07h4.6v2.45h-4.6v9.53c0,2.19.62,3.43,2.41,3.43.84,0,1.46-.11,1.86-.22l.15,2.41c-.62.26-1.61.44-2.85.44-1.5,0-2.7-.47-3.47-1.35-.91-.95-1.24-2.52-1.24-4.6v-9.64h-2.74v-2.45h2.74v-4.23l3.14-.84Z"/>
        <path class="cls-2" d="M300.2,66.45c.07,4.34,2.85,6.13,6.06,6.13,2.3,0,3.69-.4,4.89-.91l.55,2.3c-1.13.51-3.07,1.09-5.88,1.09-5.44,0-8.69-3.58-8.69-8.91s3.14-9.53,8.29-9.53c5.77,0,7.3,5.07,7.3,8.32,0,.66-.07,1.17-.11,1.5h-12.41ZM309.62,64.15c.04-2.04-.84-5.22-4.45-5.22-3.25,0-4.67,2.99-4.93,5.22h9.38Z"/>
      </g>
      <g>
        <rect class="cls-13" x="380.11" y="50.26" width="69.23" height="49.55" transform="translate(239.3 458.25) rotate(-75.66)"/>
        <path class="cls-1" d="M430.27,114.23c-5.39-1.38-10.77-2.75-16.16-4.13l-25.91-6.62c-1.98-.51-3.96-1.01-5.94-1.52l.51.62c1.94-7.57,3.87-15.14,5.81-22.71l9.24-36.14c.7-2.74,1.4-5.48,2.1-8.22l-.73.33c5.39,1.38,10.77,2.75,16.16,4.13,8.64,2.21,17.27,4.42,25.91,6.62,1.98.51,3.96,1.01,5.94,1.52l-.51-.62c-1.94,7.57-3.87,15.14-5.81,22.71-3.08,12.05-6.16,24.09-9.24,36.14-.7,2.74-1.4,5.48-2.1,8.22-.16.63,1.08.92,1.24.28,1.94-7.57,3.87-15.14,5.81-22.71,3.08-12.05,6.16-24.09,9.24-36.14.7-2.74,1.4-5.48,2.1-8.22.08-.31-.25-.55-.51-.62-5.39-1.38-10.77-2.75-16.16-4.13-8.64-2.21-17.27-4.42-25.91-6.62-1.98-.51-3.96-1.01-5.94-1.52-.27-.07-.65.03-.73.33-1.94,7.57-3.87,15.14-5.81,22.71l-9.24,36.14c-.7,2.74-1.4,5.48-2.1,8.22-.08.31.25.55.51.62,5.39,1.38,10.77,2.75,16.16,4.13l25.91,6.62c1.98.51,3.96,1.01,5.94,1.52.77.2.99-.76.22-.95Z"/>
      </g>
      <g>
        <g>
          <path class="cls-6" d="M438.08,62.88l-37.66-9.37c-.11-.03-.17-.14-.15-.24s.14-.17.24-.15l37.66,9.37c.11.03.17.14.15.24-.03.11-.14.17-.24.15Z"/>
          <path class="cls-1" d="M438.26,62.33c-11.01-2.74-22.02-5.48-33.03-8.22l-3.32-.83c-.3-.07-.66-.22-.96-.24-.05,0-.2-.08-.24-.06,0,0-.06-.02-.07-.02h-.02c-.18-.05-.08.09.3.43l-.56.31c.22-.03.73.15,1.02.22l2.8.7,8.92,2.22,20.29,5.05,3.32.83c.3.07.66.22.96.24.05,0,.2.08.24.06,0,0,.06.02.07.02h.02c.18.05.08-.09-.3-.43l.56-.31-.15.02c-.75.11-.85,1.25-.03,1.12,1.15-.17,1.06-1.25.09-1.56-.64-.2-1.32-.33-1.97-.49l-8.54-2.12-21.82-5.43c-1.63-.4-3.4-1.1-5.08-1.26-1.03-.1-1.54,1.05-.48,1.49.42.17.94.23,1.38.34l19.24,4.79c5.67,1.41,11.34,2.82,17.01,4.23.72.18,1.15-.9.35-1.1Z"/>
        </g>
        <g>
          <path class="cls-6" d="M436.59,68.89l-37.66-9.37c-.11-.03-.17-.14-.15-.24.03-.11.14-.17.24-.15l37.66,9.37c.11.03.17.14.15.24-.03.11-.14.17-.24.15Z"/>
          <path class="cls-1" d="M436.86,68.41c-11.01-2.74-22.02-5.48-33.03-8.22l-3.02-.75c-.38-.1-1.13-.44-1.53-.38-.18.03-.56.45-.45.58.08.09.46.11.57.14l2.31.57c6.46,1.61,12.92,3.21,19.38,4.82l10.71,2.66,3.32.83c.29.07.66.24.96.24.06,0,.18.08.24.06.02,0,.05.02.07.02h.02c.19.06.24-.13.16-.56-.71.11-.76,1.07.06.95,1.07-.16.95-1.15.1-1.41-.67-.21-1.37-.34-2.05-.51l-8.64-2.15c-7.26-1.81-14.51-3.61-21.77-5.42-1.58-.39-3.28-1.06-4.91-1.22-.86-.09-1.72.89-.68,1.35.44.2,1.01.25,1.48.37l19.14,4.76c5.67,1.41,11.34,2.82,17.01,4.23.58.14,1.32-.78.55-.97Z"/>
        </g>
        <g>
          <path class="cls-6" d="M435.13,74.75l-37.66-9.37c-.11-.03-.17-.14-.15-.24.03-.11.14-.17.24-.15l37.66,9.37c.11.03.17.14.15.24s-.14.17-.24.15Z"/>
          <path class="cls-1" d="M434.77,74.25c-11.01-2.74-22.02-5.48-33.03-8.22l-3.32-.83c-.39-.1-1.03-.13-1.37-.38l.7.93c-.07-.49.91-.09,1.12-.03l2.73.68c2.99.74,5.97,1.49,8.96,2.23l20.32,5.06,3.4.85c.4.1,1.03.13,1.37.38l-.7-.93c.03.2-.04.29-.22.27.06,0,.47,1.05.79,1,.75-.11-.46-1.3-.86-1.44-.62-.23-1.33-.33-1.97-.49l-8.54-2.12-21.82-5.43-3.42-.85c-.41-.1-1.23-.49-1.66-.41-.78.14.17,1.18.59,1.38.4.19.96.24,1.38.34,6.41,1.6,12.83,3.19,19.24,4.79,5.67,1.41,11.34,2.82,17.01,4.23-.06-.02-.39-.92-.72-1Z"/>
        </g>
        <g>
          <path class="cls-6" d="M433.64,80.75l-37.66-9.37c-.11-.03-.17-.14-.15-.24.03-.11.14-.17.24-.15l37.66,9.37c.11.03.17.14.15.24-.03.11-.14.17-.24.15Z"/>
          <path class="cls-1" d="M433.25,80.52c-11.04-2.75-22.08-5.49-33.12-8.24-1.49-.37-2.99-.78-4.49-1.12.4.09.88.08,1.47.22l2.38.59c6.48,1.61,12.95,3.22,19.43,4.83l10.67,2.66,3.33.83c.31.08.61.15.92.23.07.02.14.04.22.05.02,0,.04,0,.06.01-.94-.2-.52-.17-1.03-.09.1-.01.77.56,1.12.51.87-.13-.74-.85-1.1-.94-.68-.18-1.37-.34-2.05-.51l-8.64-2.15-21.77-5.42-3.35-.83c-.47-.12-1.06-.38-1.55-.39-1.16-.01.22.72.65.85.49.14.99.25,1.48.37l19.14,4.76c5.67,1.41,11.34,2.82,17.01,4.23.5.12-.59-.42-.78-.47Z"/>
        </g>
        <g>
          <path class="cls-6" d="M432.11,86.91l-37.66-9.37c-.11-.03-.17-.14-.15-.24.03-.11.14-.17.24-.15l37.66,9.37c.11.03.17.14.15.24-.03.11-.14.17-.24.15Z"/>
          <path class="cls-1" d="M432.04,86.45c-11.01-2.74-22.02-5.48-33.03-8.22l-3.32-.83c-.32-.08-.64-.17-.96-.24-.19-.04-.41-.21-.17-.03l.33.48c.02.11-.46-.12-.03.05.25.09.53.13.78.2l2.8.7,8.92,2.22c6.76,1.68,13.53,3.37,20.29,5.05l3.32.83c.32.08.64.17.96.24.19.04.41.21.17.03l-.33-.48h0c-.63.08.19,1.02.66.95,1.12-.17.02-1.21-.54-1.39-.67-.21-1.37-.34-2.05-.51l-8.64-2.15-21.77-5.42c-1.59-.39-3.28-1.04-4.91-1.22-1.16-.13-.81.98,0,1.3.46.18,1,.25,1.48.37l19.14,4.76c5.67,1.41,11.34,2.82,17.01,4.23.81.2.4-.78-.13-.91Z"/>
        </g>
        <g>
          <path class="cls-6" d="M430.61,92.91l-37.66-9.37c-.11-.03-.17-.14-.15-.24.03-.11.14-.17.24-.15l37.66,9.37c.11.03.17.14.15.24-.03.11-.14.17-.24.15Z"/>
          <path class="cls-1" d="M430.49,92.5c-11.01-2.74-22.02-5.48-33.03-8.22l-3.02-.75c-.23-.06-1.31-.5-1.53-.38-.4.21.78.53.91.57l2.31.57,19.38,4.82c3.57.89,7.14,1.78,10.71,2.66l3.32.83c.31.08.64.2.96.24.82.11-.44-.34-.26-.36-.56.08.35.92.76.86,1.1-.16-.13-1.14-.65-1.29-.67-.2-1.37-.34-2.05-.51l-8.64-2.15-21.77-5.42c-1.59-.39-3.28-1.04-4.91-1.22-1.18-.13-.63.92.12,1.2.47.18,1,.25,1.48.37,6.38,1.59,12.76,3.18,19.14,4.76,5.67,1.41,11.34,2.82,17.01,4.23.81.2.22-.7-.25-.82Z"/>
        </g>
      </g>
      <g>
        <g>
          <path class="cls-12" d="M469.71,32.72c-2.23,10.5-12.16,15.6-20.29,21.3-3.03,1.91-7.65,5.48-11.17,5.07-.62-.07,1.7-2.69,1.95-3.17,1.17-2.08,2.42-3.14,2.91-5.52-.42-.49-1.27-.4-1.6-1-.33-1.41,3.55-4.99,4.46-6.31-.52-.28-2.9-.63-2.47-1.72,1.73-2.45,3.78-4.7,5.43-7.22.47-.7,1.03-1.37,1.34-2.16-.07-.31-.49-.4-.72-.58-2.28-1.34-3.4-1.36-1.29-3.86,1.52-1.85,3.28-3.77,4.93-5.49.16-.15,1.63-.53,1.89-.46,4.01-1.52,7.36-.08,11,1.96,2.68,1.85,3.9,5.89,3.62,9.15Z"/>
          <path class="cls-12" d="M443.3,41.93c-1.15-.72,3.01-4.61,3.55-5.54,0,0,0,0,0,0,1.07-1.38,2.44-2.7,3.05-4.36-2.48-1.49-4.94-1.79-1.98-4.69,1.27-1.33,3.8-4.43,5.37-5.38.45-.02-.96,1.56-1.47,2.01-.97.86-4.74,4.68-4.65,5.7.83,1.05,2.52,1.1,3.31,2.16.28,1.1-2.45,4.02-3.18,4.97,0-.01.02-.02.03-.03-1.25,1.52-2.57,3.01-3.67,4.64.76.55,1.74.76,2.61,1.06,1.03,1.35-2.64-.25-2.96-.56Z"/>
          <path class="cls-12" d="M446.84,36.4s0,0-.01.01c0,0,0,0,.01-.01Z"/>
          <path class="cls-12" d="M439.34,57.22c-.14-.1-.16-.29-.07-.42,1.38-2.05,3.03-4,3.94-6.32-.68-.31-2.8-.76-1.94-1.82,1.06-1.55,2.33-2.97,3.54-4.4,0,0,0,0-.01.01.35-.3,1.86-2.8,1.91-1.34-1.69,2.06-3.51,4-5.02,6.19,1.19,1,3.03.23,1.59,2.7-.51.78-3.25,5.71-3.94,5.39Z"/>
          <path class="cls-12" d="M444.03,57.22c-.24-.71,3.94-2.4,4.66-3,5.64-3.25,11.09-6.99,15.38-11.92,9.56-8.81,5.91-22.86-8.27-20.49-.32.01-.75.44-.97.04-.12-1.07,4.32-.97,5.11-.89,12.8,1.41,12.38,14.77,4.33,22.02-5.06,5.75-11.66,9.8-18.3,13.46-.59.17-1.4,1.2-1.94.78Z"/>
        </g>
        <g>
          <path class="cls-12" d="M434.98,48.96c-.1,3.16-2.56,5.68-4.23,8.19-.24.35-.97-.65-1.08-.91-.95-2.03-2.39-3.88-3.54-5.81-1.14-1.92-2.2-3.88-3.15-5.9-1.89-4.03-3.28-8.29-3.89-12.71-.13-.97-.21-1.94-.29-2.92-1.47-16.35,17.96-21.16,26.33-7.86.17.07-.24.82-.56.62-.77,1.1-5.91,6.21-4.94,7.14.8,1.02,2.6,1.94,1.51,3.4-1.56,2.55-3.51,4.83-5.13,7.34.43.56,1.29.56,1.81,1.03.84,1.01-.77,2.18-1.26,3.03-1,1.37-2.15,2.72-2.92,4.23.11.42.67.61.93.95.15-.07.33-.04.42.16Z"/>
          <path class="cls-12" d="M430.56,57.23c-.31-.51.99-1.49,1.21-2.05.74-1.15,3.39-4.55,3.11-5.8-.33-.73-2.19-.99-1.59-1.99,1.42-1.98,3.22-3.75,4.4-5.87.45-1.06-1.84-.98-2-1.9,1.34-3.02,4.39-5.17,5.65-8.25-.43-1.15-2.67-1.69-2.31-3.07.26-.65,6.14-8.73,6.31-6.92-2.03,2.3-4.25,4.55-5.79,7.24.59,1.15,2.81,1.71,2.29,3.24-1.46,2.8-3.88,4.97-5.51,7.68.98.62,2.84,1.01,1.73,2.55-1.21,2.05-2.91,3.73-4.29,5.66,2.35,1.25,1.95,2.38.72,4.39-.62.79-3.15,5.49-3.95,5.09Z"/>
        </g>
      </g>
      <line class="cls-7" x1="388.71" y1="97.22" x2="401.51" y2="100.62"/>
      <line class="cls-7" x1="410.89" y1="102.56" x2="423.69" y2="105.97"/>
      <path class="cls-2" d="M362.93,53.4v9.91h9.53v2.53h-9.53v10h-2.7v-10h-9.53v-2.53h9.53v-9.91h2.7Z"/>
      <g>
        <path class="cls-2" d="M191.75,110.46c.07-1.2.15-2.99.15-4.56v-21.35h3.18v11.1h.07c1.13-1.97,3.18-3.25,6.02-3.25,4.38,0,7.48,3.65,7.45,9.02,0,6.31-3.98,9.45-7.92,9.45-2.56,0-4.6-.99-5.91-3.32h-.11l-.15,2.92h-2.77ZM195.08,103.38c0,.4.07.8.15,1.17.62,2.23,2.48,3.76,4.82,3.76,3.36,0,5.37-2.74,5.37-6.79,0-3.54-1.82-6.57-5.26-6.57-2.19,0-4.23,1.5-4.89,3.94-.07.37-.18.8-.18,1.31v3.17Z"/>
        <path class="cls-2" d="M228.65,101.48c0,6.53-4.53,9.38-8.8,9.38-4.78,0-8.47-3.5-8.47-9.09,0-5.91,3.87-9.38,8.76-9.38s8.5,3.69,8.5,9.09ZM214.63,101.66c0,3.87,2.23,6.79,5.37,6.79s5.37-2.88,5.37-6.86c0-2.99-1.5-6.79-5.29-6.79s-5.44,3.5-5.44,6.86Z"/>
        <path class="cls-2" d="M235.87,100.9h.07c.44-.62,1.06-1.39,1.57-2.01l5.18-6.09h3.87l-6.83,7.26,7.77,10.4h-3.91l-6.1-8.47-1.64,1.83v6.64h-3.18v-25.91h3.18v16.35Z"/>
        <path class="cls-2" d="M249.37,107.17c.95.62,2.63,1.28,4.23,1.28,2.34,0,3.43-1.17,3.43-2.63,0-1.53-.91-2.37-3.29-3.25-3.18-1.13-4.67-2.88-4.67-5,0-2.85,2.3-5.18,6.1-5.18,1.79,0,3.36.51,4.34,1.1l-.8,2.34c-.69-.44-1.97-1.02-3.61-1.02-1.9,0-2.96,1.09-2.96,2.41,0,1.46,1.06,2.12,3.36,2.99,3.07,1.17,4.63,2.7,4.63,5.33,0,3.1-2.41,5.29-6.61,5.29-1.93,0-3.72-.47-4.96-1.21l.8-2.45Z"/>
        <path class="cls-2" d="M268.13,87.72v5.07h4.6v2.45h-4.6v9.53c0,2.19.62,3.43,2.41,3.43.84,0,1.46-.11,1.86-.22l.15,2.41c-.62.26-1.61.44-2.85.44-1.5,0-2.7-.47-3.47-1.35-.91-.95-1.24-2.52-1.24-4.6v-9.64h-2.74v-2.45h2.74v-4.23l3.14-.84Z"/>
        <path class="cls-2" d="M286.12,110.46l-.26-2.23h-.11c-.99,1.39-2.88,2.63-5.4,2.63-3.58,0-5.4-2.52-5.4-5.07,0-4.27,3.8-6.61,10.62-6.57v-.37c0-1.46-.4-4.09-4.01-4.09-1.64,0-3.36.51-4.6,1.31l-.73-2.12c1.46-.95,3.58-1.57,5.8-1.57,5.4,0,6.72,3.69,6.72,7.23v6.61c0,1.53.07,3.03.29,4.23h-2.92ZM285.65,101.44c-3.5-.07-7.48.55-7.48,3.98,0,2.08,1.39,3.07,3.03,3.07,2.3,0,3.76-1.46,4.27-2.96.11-.33.18-.69.18-1.02v-3.07Z"/>
        <path class="cls-2" d="M294.88,92.79l3.47,9.93c.58,1.61,1.06,3.07,1.42,4.53h.11c.4-1.46.91-2.92,1.5-4.53l3.43-9.93h3.36l-6.94,17.67h-3.07l-6.72-17.67h3.43Z"/>
        <path class="cls-2" d="M312.61,102.21c.07,4.34,2.85,6.13,6.06,6.13,2.3,0,3.69-.4,4.89-.91l.55,2.3c-1.13.51-3.07,1.09-5.88,1.09-5.44,0-8.69-3.58-8.69-8.91s3.14-9.53,8.29-9.53c5.77,0,7.3,5.07,7.3,8.32,0,.66-.07,1.17-.11,1.5h-12.41ZM322.03,99.91c.04-2.04-.84-5.22-4.45-5.22-3.25,0-4.67,2.99-4.93,5.22h9.38Z"/>
        <path class="cls-2" d="M329.11,98.31c0-2.08-.04-3.87-.15-5.51h2.81l.11,3.47h.15c.8-2.37,2.74-3.87,4.89-3.87.36,0,.62.04.91.11v3.03c-.33-.07-.66-.11-1.09-.11-2.26,0-3.87,1.72-4.31,4.12-.07.44-.15.95-.15,1.5v9.42h-3.18v-12.15Z"/>
      </g>
    </g>
  </g>
</svg>